{
	"asset":{
		"generator":"Khronos glTF Blender I/O v4.0.44",
		"version":"2.0"
	},
	"scene":0,
	"scenes":[
		{
			"name":"Scene",
			"nodes":[
				0
			]
		}
	],
	"nodes":[
		{
			"mesh":0,
			"name":"object_0",
			"rotation":[
				-0.70710688829422,
				0,
				0,
				0.7071066498756409
			],
			"scale":[
				3.3600003719329834,
				3.3600008487701416,
				3.3600008487701416
			]
		}
	],
	"materials":[
		{
			"name":"object_0",
			"pbrMetallicRoughness":{
				"baseColorTexture":{
					"index":0
				},
				"metallicFactor":0
			}
		}
	],
	"meshes":[
		{
			"name":"Mesh_0",
			"primitives":[
				{
					"attributes":{
						"POSITION":0,
						"NORMAL":1,
						"TEXCOORD_0":2
					},
					"indices":3,
					"material":0
				}
			]
		}
	],
	"textures":[
		{
			"sampler":0,
			"source":0
		}
	],
	"images":[
		{
			"mimeType":"image/png",
			"name":"RGB_03a751f34ff74a3aad1ebd3e7b39b143_tsx_bot142",
			"uri":"RGB_03a751f34ff74a3aad1ebd3e7b39b143_tsx_bot142.png"
		}
	],
	"accessors":[
		{
			"bufferView":0,
			"componentType":5126,
			"count":10125,
			"max":[
				0.5790563821792603,
				0.37451115250587463,
				1.845758080482483
			],
			"min":[
				-0.5810419917106628,
				-0.1588039994239807,
				0.0015482399612665176
			],
			"type":"VEC3"
		},
		{
			"bufferView":1,
			"componentType":5126,
			"count":10125,
			"type":"VEC3"
		},
		{
			"bufferView":2,
			"componentType":5126,
			"count":10125,
			"type":"VEC2"
		},
		{
			"bufferView":3,
			"componentType":5123,
			"count":10125,
			"type":"SCALAR"
		}
	],
	"bufferViews":[
		{
			"buffer":0,
			"byteLength":121500,
			"byteOffset":0,
			"target":34962
		},
		{
			"buffer":0,
			"byteLength":121500,
			"byteOffset":121500,
			"target":34962
		},
		{
			"buffer":0,
			"byteLength":81000,
			"byteOffset":243000,
			"target":34962
		},
		{
			"buffer":0,
			"byteLength":20250,
			"byteOffset":324000,
			"target":34963
		}
	],
	"samplers":[
		{
			"magFilter":9729,
			"minFilter":9987
		}
	],
	"buffers":[
		{
			"byteLength":344252,
			"uri":"azuka.bin"
		}
	]
}
