{
	"asset":{
		"generator":"Khronos glTF Blender I/O v4.0.44",
		"version":"2.0"
	},
	"extensionsUsed":[
		"KHR_materials_specular"
	],
	"scene":0,
	"scenes":[
		{
			"name":"Scene",
			"nodes":[
				0
			]
		}
	],
	"nodes":[
		{
			"mesh":0,
			"name":"object_1",
			"scale":[
				0.9000000357627869,
				0.9000000357627869,
				0.9000000357627869
			]
		}
	],
	"materials":[
		{
			"name":"object_1",
			"pbrMetallicRoughness":{
				"baseColorTexture":{
					"index":0
				},
				"metallicFactor":0.44999998807907104,
				"roughnessFactor":0.7227272987365723
			}
		},
		{
			"name":"object_2",
			"pbrMetallicRoughness":{
				"baseColorTexture":{
					"index":1
				},
				"metallicFactor":0.5,
				"roughnessFactor":0.5
			}
		},
		{
			"name":"object_3",
			"pbrMetallicRoughness":{
				"baseColorTexture":{
					"index":2
				},
				"metallicFactor":0.418181836605072
			}
		},
		{
			"name":"object_4",
			"pbrMetallicRoughness":{
				"baseColorTexture":{
					"index":3
				},
				"metallicFactor":0.5,
				"roughnessFactor":0.5
			}
		},
		{
			"name":"object_5",
			"pbrMetallicRoughness":{
				"baseColorTexture":{
					"index":4
				},
				"metallicFactor":0.5,
				"roughnessFactor":0.5
			}
		},
		{
			"name":"object_6",
			"pbrMetallicRoughness":{
				"baseColorTexture":{
					"index":5
				},
				"metallicFactor":0.5,
				"roughnessFactor":0.5
			}
		},
		{
			"name":"object_7",
			"pbrMetallicRoughness":{
				"metallicFactor":0.5,
				"roughnessFactor":0.5
			}
		},
		{
			"name":"object_8",
			"pbrMetallicRoughness":{
				"metallicFactor":0.5,
				"roughnessFactor":0.5
			}
		},
		{
			"name":"object_9",
			"pbrMetallicRoughness":{
				"baseColorTexture":{
					"index":6
				},
				"metallicFactor":0.5,
				"roughnessFactor":0.4954545497894287
			}
		},
		{
			"name":"object_10",
			"pbrMetallicRoughness":{
				"metallicFactor":0.5,
				"roughnessFactor":0.5
			}
		},
		{
			"name":"object_11",
			"pbrMetallicRoughness":{
				"baseColorTexture":{
					"index":7
				},
				"metallicFactor":0.5727272629737854,
				"roughnessFactor":0.40909090638160706
			}
		},
		{
			"name":"object_12",
			"pbrMetallicRoughness":{
				"baseColorTexture":{
					"index":8
				},
				"metallicFactor":0
			}
		},
		{
			"name":"object_13",
			"pbrMetallicRoughness":{
				"metallicFactor":0.5,
				"roughnessFactor":0.5590909123420715
			}
		},
		{
			"name":"object_14",
			"pbrMetallicRoughness":{
				"baseColorTexture":{
					"index":9
				},
				"metallicFactor":0.5,
				"roughnessFactor":0.5
			}
		},
		{
			"name":"object_15",
			"pbrMetallicRoughness":{
				"metallicFactor":0.5,
				"roughnessFactor":0.5
			}
		},
		{
			"emissiveFactor":[
				0.20000000298023224,
				0.20000000298023224,
				0.20000000298023224
			],
			"extensions":{
				"KHR_materials_specular":{
					"specularFactor":0
				}
			},
			"name":"object_16",
			"pbrMetallicRoughness":{
				"baseColorTexture":{
					"index":10
				},
				"metallicFactor":0
			}
		},
		{
			"name":"object_17",
			"pbrMetallicRoughness":{
				"baseColorTexture":{
					"index":11
				},
				"metallicFactor":0.5,
				"roughnessFactor":0
			}
		},
		{
			"name":"object_18",
			"pbrMetallicRoughness":{
				"baseColorTexture":{
					"index":12
				},
				"metallicFactor":0.5,
				"roughnessFactor":0
			}
		}
	],
	"meshes":[
		{
			"name":"Mesh_1",
			"primitives":[
				{
					"attributes":{
						"POSITION":0,
						"NORMAL":1,
						"TEXCOORD_0":2
					},
					"indices":3,
					"material":0
				},
				{
					"attributes":{
						"POSITION":4,
						"NORMAL":5,
						"TEXCOORD_0":6
					},
					"indices":7,
					"material":1
				},
				{
					"attributes":{
						"POSITION":8,
						"NORMAL":9,
						"TEXCOORD_0":10
					},
					"indices":11,
					"material":2
				},
				{
					"attributes":{
						"POSITION":12,
						"NORMAL":13,
						"TEXCOORD_0":14
					},
					"indices":15,
					"material":3
				},
				{
					"attributes":{
						"POSITION":16,
						"NORMAL":17,
						"TEXCOORD_0":18
					},
					"indices":19,
					"material":4
				},
				{
					"attributes":{
						"POSITION":20,
						"NORMAL":21,
						"TEXCOORD_0":22
					},
					"indices":23,
					"material":5
				},
				{
					"attributes":{
						"POSITION":24,
						"NORMAL":25,
						"TEXCOORD_0":26
					},
					"indices":27,
					"material":6
				},
				{
					"attributes":{
						"POSITION":28,
						"NORMAL":29,
						"TEXCOORD_0":30
					},
					"indices":31,
					"material":7
				},
				{
					"attributes":{
						"POSITION":32,
						"NORMAL":33,
						"TEXCOORD_0":34
					},
					"indices":35,
					"material":8
				},
				{
					"attributes":{
						"POSITION":36,
						"NORMAL":37,
						"TEXCOORD_0":38
					},
					"indices":39,
					"material":9
				},
				{
					"attributes":{
						"POSITION":40,
						"NORMAL":41,
						"TEXCOORD_0":42
					},
					"indices":43,
					"material":10
				},
				{
					"attributes":{
						"POSITION":44,
						"NORMAL":45,
						"TEXCOORD_0":46
					},
					"indices":47,
					"material":11
				},
				{
					"attributes":{
						"POSITION":48,
						"NORMAL":49,
						"TEXCOORD_0":50
					},
					"indices":51,
					"material":12
				},
				{
					"attributes":{
						"POSITION":52,
						"NORMAL":53,
						"TEXCOORD_0":54
					},
					"indices":27,
					"material":13
				},
				{
					"attributes":{
						"POSITION":55,
						"NORMAL":56,
						"TEXCOORD_0":57
					},
					"indices":58,
					"material":14
				},
				{
					"attributes":{
						"POSITION":59,
						"NORMAL":60,
						"TEXCOORD_0":61
					},
					"indices":62,
					"material":15
				},
				{
					"attributes":{
						"POSITION":63,
						"NORMAL":64,
						"TEXCOORD_0":65
					},
					"indices":66,
					"material":16
				},
				{
					"attributes":{
						"POSITION":67,
						"NORMAL":68,
						"TEXCOORD_0":69
					},
					"indices":70,
					"material":17
				}
			]
		}
	],
	"textures":[
		{
			"sampler":0,
			"source":0
		},
		{
			"sampler":0,
			"source":1
		},
		{
			"sampler":0,
			"source":1
		},
		{
			"sampler":0,
			"source":2
		},
		{
			"sampler":0,
			"source":0
		},
		{
			"sampler":0,
			"source":1
		},
		{
			"sampler":0,
			"source":0
		},
		{
			"sampler":0,
			"source":3
		},
		{
			"sampler":0,
			"source":4
		},
		{
			"sampler":0,
			"source":2
		},
		{
			"sampler":0,
			"source":5
		},
		{
			"sampler":0,
			"source":5
		},
		{
			"sampler":0,
			"source":5
		}
	],
	"images":[
		{
			"mimeType":"image/png",
			"name":"RGB_69285721e87a48b8a090e6da7894e90c_suit",
			"uri":"RGB_69285721e87a48b8a090e6da7894e90c_suit.png"
		},
		{
			"mimeType":"image/png",
			"name":"RGB_ca233a77ec16424c9d090c4ec80d4b7d_hair",
			"uri":"RGB_ca233a77ec16424c9d090c4ec80d4b7d_hair.png"
		},
		{
			"mimeType":"image/png",
			"name":"RGB_2f0fd89b958c4765bb87bf224db629c2_Asuka_Langley",
			"uri":"RGB_2f0fd89b958c4765bb87bf224db629c2_Asuka_Langley.png"
		},
		{
			"mimeType":"image/png",
			"name":"RGB_f8077df899a742768a4ac2b40413ec48_chest",
			"uri":"RGB_f8077df899a742768a4ac2b40413ec48_chest.png"
		},
		{
			"mimeType":"image/png",
			"name":"RGB_fdd1de4e75334de08048b27ba9f3a507_skin",
			"uri":"RGB_fdd1de4e75334de08048b27ba9f3a507_skin.png"
		},
		{
			"mimeType":"image/jpeg",
			"name":"1225930fca3f4b91b8130a7f1bcdf645",
			"uri":"1225930fca3f4b91b8130a7f1bcdf645.jpg"
		}
	],
	"accessors":[
		{
			"bufferView":0,
			"componentType":5126,
			"count":253008,
			"max":[
				2.4566078186035156,
				6.147543430328369,
				0.5724506378173828
			],
			"min":[
				-2.4565799236297607,
				0.08577573299407959,
				-0.427713006734848
			],
			"type":"VEC3"
		},
		{
			"bufferView":1,
			"componentType":5126,
			"count":253008,
			"type":"VEC3"
		},
		{
			"bufferView":2,
			"componentType":5126,
			"count":253008,
			"type":"VEC2"
		},
		{
			"bufferView":3,
			"componentType":5125,
			"count":253008,
			"type":"SCALAR"
		},
		{
			"bufferView":4,
			"componentType":5126,
			"count":64800,
			"max":[
				0.581912636756897,
				6.88896369934082,
				0.5287137627601624
			],
			"min":[
				-0.5813646912574768,
				4.892409801483154,
				-0.4843670129776001
			],
			"type":"VEC3"
		},
		{
			"bufferView":5,
			"componentType":5126,
			"count":64800,
			"type":"VEC3"
		},
		{
			"bufferView":6,
			"componentType":5126,
			"count":64800,
			"type":"VEC2"
		},
		{
			"bufferView":7,
			"componentType":5123,
			"count":64800,
			"type":"SCALAR"
		},
		{
			"bufferView":8,
			"componentType":5126,
			"count":56832,
			"max":[
				0.5836183428764343,
				6.890914440155029,
				0.5306930541992188
			],
			"min":[
				-0.583636999130249,
				4.892409801483154,
				-0.4863469898700714
			],
			"type":"VEC3"
		},
		{
			"bufferView":9,
			"componentType":5126,
			"count":56832,
			"type":"VEC3"
		},
		{
			"bufferView":10,
			"componentType":5126,
			"count":56832,
			"type":"VEC2"
		},
		{
			"bufferView":11,
			"componentType":5123,
			"count":56832,
			"type":"SCALAR"
		},
		{
			"bufferView":12,
			"componentType":5126,
			"count":36864,
			"max":[
				0.30980974435806274,
				6.3540358543396,
				0.3966653048992157
			],
			"min":[
				-0.309810996055603,
				6.210840225219727,
				0.25312700867652893
			],
			"type":"VEC3"
		},
		{
			"bufferView":13,
			"componentType":5126,
			"count":36864,
			"type":"VEC3"
		},
		{
			"bufferView":14,
			"componentType":5126,
			"count":36864,
			"type":"VEC2"
		},
		{
			"bufferView":15,
			"componentType":5123,
			"count":36864,
			"type":"SCALAR"
		},
		{
			"bufferView":16,
			"componentType":5126,
			"count":100407,
			"max":[
				0.6033623814582825,
				5.734678745269775,
				0.5762749314308167
			],
			"min":[
				-1.9373899698257446,
				1.4458470344543457,
				-0.42832499742507935
			],
			"type":"VEC3"
		},
		{
			"bufferView":17,
			"componentType":5126,
			"count":100407,
			"type":"VEC3"
		},
		{
			"bufferView":18,
			"componentType":5126,
			"count":100407,
			"type":"VEC2"
		},
		{
			"bufferView":19,
			"componentType":5125,
			"count":100407,
			"type":"SCALAR"
		},
		{
			"bufferView":20,
			"componentType":5126,
			"count":65481,
			"max":[
				1.9374173879623413,
				5.734678745269775,
				0.5762749314308167
			],
			"min":[
				-0.6033350229263306,
				1.4458470344543457,
				-0.4168517291545868
			],
			"type":"VEC3"
		},
		{
			"bufferView":21,
			"componentType":5126,
			"count":65481,
			"type":"VEC3"
		},
		{
			"bufferView":22,
			"componentType":5126,
			"count":65481,
			"type":"VEC2"
		},
		{
			"bufferView":23,
			"componentType":5123,
			"count":65481,
			"type":"SCALAR"
		},
		{
			"bufferView":24,
			"componentType":5126,
			"count":576,
			"max":[
				0.0023343556094914675,
				6.163329124450684,
				0.4943635165691376
			],
			"min":[
				-0.002334360033273697,
				6.094329833984375,
				0.4581480026245117
			],
			"type":"VEC3"
		},
		{
			"bufferView":25,
			"componentType":5126,
			"count":576,
			"type":"VEC3"
		},
		{
			"bufferView":26,
			"componentType":5126,
			"count":576,
			"type":"VEC2"
		},
		{
			"bufferView":27,
			"componentType":5123,
			"count":576,
			"type":"SCALAR"
		},
		{
			"bufferView":28,
			"componentType":5126,
			"count":6144,
			"max":[
				0.4180523455142975,
				6.915320873260498,
				0.05694974213838577
			],
			"min":[
				-0.41805300116539,
				6.702310085296631,
				-0.07925169914960861
			],
			"type":"VEC3"
		},
		{
			"bufferView":29,
			"componentType":5126,
			"count":6144,
			"type":"VEC3"
		},
		{
			"bufferView":30,
			"componentType":5126,
			"count":6144,
			"type":"VEC2"
		},
		{
			"bufferView":31,
			"componentType":5123,
			"count":6144,
			"type":"SCALAR"
		},
		{
			"bufferView":32,
			"componentType":5126,
			"count":6144,
			"max":[
				0.4210509955883026,
				6.918161392211914,
				0.05968756973743439
			],
			"min":[
				-0.4210500121116638,
				6.699560165405273,
				-0.0820200964808464
			],
			"type":"VEC3"
		},
		{
			"bufferView":33,
			"componentType":5126,
			"count":6144,
			"type":"VEC3"
		},
		{
			"bufferView":34,
			"componentType":5126,
			"count":6144,
			"type":"VEC2"
		},
		{
			"bufferView":35,
			"componentType":5123,
			"count":6144,
			"type":"SCALAR"
		},
		{
			"bufferView":36,
			"componentType":5126,
			"count":1584,
			"max":[
				0.16967421770095825,
				6.311581611633301,
				0.3310237526893616
			],
			"min":[
				-0.22044099867343903,
				6.278389930725098,
				0.29221099615097046
			],
			"type":"VEC3"
		},
		{
			"bufferView":37,
			"componentType":5126,
			"count":1584,
			"type":"VEC3"
		},
		{
			"bufferView":38,
			"componentType":5126,
			"count":1584,
			"type":"VEC2"
		},
		{
			"bufferView":39,
			"componentType":5123,
			"count":1584,
			"type":"SCALAR"
		},
		{
			"bufferView":40,
			"componentType":5126,
			"count":8784,
			"max":[
				0.4844888150691986,
				5.6342573165893555,
				0.6380774974822998
			],
			"min":[
				-0.4844529926776886,
				4.768360137939453,
				-0.34311699867248535
			],
			"type":"VEC3"
		},
		{
			"bufferView":41,
			"componentType":5126,
			"count":8784,
			"type":"VEC3"
		},
		{
			"bufferView":42,
			"componentType":5126,
			"count":8784,
			"type":"VEC2"
		},
		{
			"bufferView":43,
			"componentType":5123,
			"count":8784,
			"type":"SCALAR"
		},
		{
			"bufferView":44,
			"componentType":5126,
			"count":34272,
			"max":[
				0.41985026001930237,
				6.732245922088623,
				0.4903017580509186
			],
			"min":[
				-0.41981399059295654,
				5.816959857940674,
				-0.2762660086154938
			],
			"type":"VEC3"
		},
		{
			"bufferView":45,
			"componentType":5126,
			"count":34272,
			"type":"VEC3"
		},
		{
			"bufferView":46,
			"componentType":5126,
			"count":34272,
			"type":"VEC2"
		},
		{
			"bufferView":47,
			"componentType":5123,
			"count":34272,
			"type":"SCALAR"
		},
		{
			"bufferView":48,
			"componentType":5126,
			"count":103680,
			"max":[
				1.7587040662765503,
				5.692180633544922,
				0.5104942321777344
			],
			"min":[
				-1.7586699724197388,
				0.06277959793806076,
				-0.4058380126953125
			],
			"type":"VEC3"
		},
		{
			"bufferView":49,
			"componentType":5126,
			"count":103680,
			"type":"VEC3"
		},
		{
			"bufferView":50,
			"componentType":5126,
			"count":103680,
			"type":"VEC2"
		},
		{
			"bufferView":51,
			"componentType":5125,
			"count":103680,
			"type":"SCALAR"
		},
		{
			"bufferView":52,
			"componentType":5126,
			"count":576,
			"max":[
				0.3382513225078583,
				5.646280288696289,
				0.3500220477581024
			],
			"min":[
				-0.33821600675582886,
				5.426506996154785,
				0.1773110032081604
			],
			"type":"VEC3"
		},
		{
			"bufferView":53,
			"componentType":5126,
			"count":576,
			"type":"VEC3"
		},
		{
			"bufferView":54,
			"componentType":5126,
			"count":576,
			"type":"VEC2"
		},
		{
			"bufferView":55,
			"componentType":5126,
			"count":2304,
			"max":[
				0.1636948585510254,
				5.912437915802002,
				0.17440389096736908
			],
			"min":[
				-0.16381900012493134,
				5.713817119598389,
				-0.13874001801013947
			],
			"type":"VEC3"
		},
		{
			"bufferView":56,
			"componentType":5126,
			"count":2304,
			"type":"VEC3"
		},
		{
			"bufferView":57,
			"componentType":5126,
			"count":2304,
			"type":"VEC2"
		},
		{
			"bufferView":58,
			"componentType":5123,
			"count":2304,
			"type":"SCALAR"
		},
		{
			"bufferView":59,
			"componentType":5126,
			"count":3648,
			"max":[
				0.30577152967453003,
				6.437369346618652,
				0.33885470032691956
			],
			"min":[
				-0.3057369887828827,
				6.150257110595703,
				-0.02370079979300499
			],
			"type":"VEC3"
		},
		{
			"bufferView":60,
			"componentType":5126,
			"count":3648,
			"type":"VEC3"
		},
		{
			"bufferView":61,
			"componentType":5126,
			"count":3648,
			"type":"VEC2"
		},
		{
			"bufferView":62,
			"componentType":5123,
			"count":3648,
			"type":"SCALAR"
		},
		{
			"bufferView":63,
			"componentType":5126,
			"count":426,
			"max":[
				0.21021391451358795,
				6.282110214233398,
				0.29846861958503723
			],
			"min":[
				-0.21050600707530975,
				6.209410190582275,
				0.28933200240135193
			],
			"type":"VEC3"
		},
		{
			"bufferView":64,
			"componentType":5126,
			"count":426,
			"type":"VEC3"
		},
		{
			"bufferView":65,
			"componentType":5126,
			"count":426,
			"type":"VEC2"
		},
		{
			"bufferView":66,
			"componentType":5123,
			"count":426,
			"type":"SCALAR"
		},
		{
			"bufferView":67,
			"componentType":5126,
			"count":1206,
			"max":[
				0.2161751240491867,
				6.332752227783203,
				0.2992134094238281
			],
			"min":[
				-0.21626000106334686,
				6.20550012588501,
				0.28858599066734314
			],
			"type":"VEC3"
		},
		{
			"bufferView":68,
			"componentType":5126,
			"count":1206,
			"type":"VEC3"
		},
		{
			"bufferView":69,
			"componentType":5126,
			"count":1206,
			"type":"VEC2"
		},
		{
			"bufferView":70,
			"componentType":5123,
			"count":1206,
			"type":"SCALAR"
		}
	],
	"bufferViews":[
		{
			"buffer":0,
			"byteLength":3036096,
			"byteOffset":0,
			"target":34962
		},
		{
			"buffer":0,
			"byteLength":3036096,
			"byteOffset":3036096,
			"target":34962
		},
		{
			"buffer":0,
			"byteLength":2024064,
			"byteOffset":6072192,
			"target":34962
		},
		{
			"buffer":0,
			"byteLength":1012032,
			"byteOffset":8096256,
			"target":34963
		},
		{
			"buffer":0,
			"byteLength":777600,
			"byteOffset":9108288,
			"target":34962
		},
		{
			"buffer":0,
			"byteLength":777600,
			"byteOffset":9885888,
			"target":34962
		},
		{
			"buffer":0,
			"byteLength":518400,
			"byteOffset":10663488,
			"target":34962
		},
		{
			"buffer":0,
			"byteLength":129600,
			"byteOffset":11181888,
			"target":34963
		},
		{
			"buffer":0,
			"byteLength":681984,
			"byteOffset":11311488,
			"target":34962
		},
		{
			"buffer":0,
			"byteLength":681984,
			"byteOffset":11993472,
			"target":34962
		},
		{
			"buffer":0,
			"byteLength":454656,
			"byteOffset":12675456,
			"target":34962
		},
		{
			"buffer":0,
			"byteLength":113664,
			"byteOffset":13130112,
			"target":34963
		},
		{
			"buffer":0,
			"byteLength":442368,
			"byteOffset":13243776,
			"target":34962
		},
		{
			"buffer":0,
			"byteLength":442368,
			"byteOffset":13686144,
			"target":34962
		},
		{
			"buffer":0,
			"byteLength":294912,
			"byteOffset":14128512,
			"target":34962
		},
		{
			"buffer":0,
			"byteLength":73728,
			"byteOffset":14423424,
			"target":34963
		},
		{
			"buffer":0,
			"byteLength":1204884,
			"byteOffset":14497152,
			"target":34962
		},
		{
			"buffer":0,
			"byteLength":1204884,
			"byteOffset":15702036,
			"target":34962
		},
		{
			"buffer":0,
			"byteLength":803256,
			"byteOffset":16906920,
			"target":34962
		},
		{
			"buffer":0,
			"byteLength":401628,
			"byteOffset":17710176,
			"target":34963
		},
		{
			"buffer":0,
			"byteLength":785772,
			"byteOffset":18111804,
			"target":34962
		},
		{
			"buffer":0,
			"byteLength":785772,
			"byteOffset":18897576,
			"target":34962
		},
		{
			"buffer":0,
			"byteLength":523848,
			"byteOffset":19683348,
			"target":34962
		},
		{
			"buffer":0,
			"byteLength":130962,
			"byteOffset":20207196,
			"target":34963
		},
		{
			"buffer":0,
			"byteLength":6912,
			"byteOffset":20338160,
			"target":34962
		},
		{
			"buffer":0,
			"byteLength":6912,
			"byteOffset":20345072,
			"target":34962
		},
		{
			"buffer":0,
			"byteLength":4608,
			"byteOffset":20351984,
			"target":34962
		},
		{
			"buffer":0,
			"byteLength":1152,
			"byteOffset":20356592,
			"target":34963
		},
		{
			"buffer":0,
			"byteLength":73728,
			"byteOffset":20357744,
			"target":34962
		},
		{
			"buffer":0,
			"byteLength":73728,
			"byteOffset":20431472,
			"target":34962
		},
		{
			"buffer":0,
			"byteLength":49152,
			"byteOffset":20505200,
			"target":34962
		},
		{
			"buffer":0,
			"byteLength":12288,
			"byteOffset":20554352,
			"target":34963
		},
		{
			"buffer":0,
			"byteLength":73728,
			"byteOffset":20566640,
			"target":34962
		},
		{
			"buffer":0,
			"byteLength":73728,
			"byteOffset":20640368,
			"target":34962
		},
		{
			"buffer":0,
			"byteLength":49152,
			"byteOffset":20714096,
			"target":34962
		},
		{
			"buffer":0,
			"byteLength":12288,
			"byteOffset":20763248,
			"target":34963
		},
		{
			"buffer":0,
			"byteLength":19008,
			"byteOffset":20775536,
			"target":34962
		},
		{
			"buffer":0,
			"byteLength":19008,
			"byteOffset":20794544,
			"target":34962
		},
		{
			"buffer":0,
			"byteLength":12672,
			"byteOffset":20813552,
			"target":34962
		},
		{
			"buffer":0,
			"byteLength":3168,
			"byteOffset":20826224,
			"target":34963
		},
		{
			"buffer":0,
			"byteLength":105408,
			"byteOffset":20829392,
			"target":34962
		},
		{
			"buffer":0,
			"byteLength":105408,
			"byteOffset":20934800,
			"target":34962
		},
		{
			"buffer":0,
			"byteLength":70272,
			"byteOffset":21040208,
			"target":34962
		},
		{
			"buffer":0,
			"byteLength":17568,
			"byteOffset":21110480,
			"target":34963
		},
		{
			"buffer":0,
			"byteLength":411264,
			"byteOffset":21128048,
			"target":34962
		},
		{
			"buffer":0,
			"byteLength":411264,
			"byteOffset":21539312,
			"target":34962
		},
		{
			"buffer":0,
			"byteLength":274176,
			"byteOffset":21950576,
			"target":34962
		},
		{
			"buffer":0,
			"byteLength":68544,
			"byteOffset":22224752,
			"target":34963
		},
		{
			"buffer":0,
			"byteLength":1244160,
			"byteOffset":22293296,
			"target":34962
		},
		{
			"buffer":0,
			"byteLength":1244160,
			"byteOffset":23537456,
			"target":34962
		},
		{
			"buffer":0,
			"byteLength":829440,
			"byteOffset":24781616,
			"target":34962
		},
		{
			"buffer":0,
			"byteLength":414720,
			"byteOffset":25611056,
			"target":34963
		},
		{
			"buffer":0,
			"byteLength":6912,
			"byteOffset":26025776,
			"target":34962
		},
		{
			"buffer":0,
			"byteLength":6912,
			"byteOffset":26032688,
			"target":34962
		},
		{
			"buffer":0,
			"byteLength":4608,
			"byteOffset":26039600,
			"target":34962
		},
		{
			"buffer":0,
			"byteLength":27648,
			"byteOffset":26044208,
			"target":34962
		},
		{
			"buffer":0,
			"byteLength":27648,
			"byteOffset":26071856,
			"target":34962
		},
		{
			"buffer":0,
			"byteLength":18432,
			"byteOffset":26099504,
			"target":34962
		},
		{
			"buffer":0,
			"byteLength":4608,
			"byteOffset":26117936,
			"target":34963
		},
		{
			"buffer":0,
			"byteLength":43776,
			"byteOffset":26122544,
			"target":34962
		},
		{
			"buffer":0,
			"byteLength":43776,
			"byteOffset":26166320,
			"target":34962
		},
		{
			"buffer":0,
			"byteLength":29184,
			"byteOffset":26210096,
			"target":34962
		},
		{
			"buffer":0,
			"byteLength":7296,
			"byteOffset":26239280,
			"target":34963
		},
		{
			"buffer":0,
			"byteLength":5112,
			"byteOffset":26246576,
			"target":34962
		},
		{
			"buffer":0,
			"byteLength":5112,
			"byteOffset":26251688,
			"target":34962
		},
		{
			"buffer":0,
			"byteLength":3408,
			"byteOffset":26256800,
			"target":34962
		},
		{
			"buffer":0,
			"byteLength":852,
			"byteOffset":26260208,
			"target":34963
		},
		{
			"buffer":0,
			"byteLength":14472,
			"byteOffset":26261060,
			"target":34962
		},
		{
			"buffer":0,
			"byteLength":14472,
			"byteOffset":26275532,
			"target":34962
		},
		{
			"buffer":0,
			"byteLength":9648,
			"byteOffset":26290004,
			"target":34962
		},
		{
			"buffer":0,
			"byteLength":2412,
			"byteOffset":26299652,
			"target":34963
		}
	],
	"samplers":[
		{
			"magFilter":9729,
			"minFilter":9987
		}
	],
	"buffers":[
		{
			"byteLength":26302064,
			"uri":"azuka2.bin"
		}
	]
}
