{
    "asset" : {
        "generator" : "Khronos glTF Blender I/O v3.3.27",
        "version" : "2.0"
    },
    "scene" : 0,
    "scenes" : [
        {
            "name" : "Scene",
            "nodes" : [
                0,
                1,
                2,
                3,
                4,
                5,
                6,
                7,
                8,
                9
            ]
        }
    ],
    "nodes" : [
        {
            "name" : "Camera.001",
            "rotation" : [
                0.483536034822464,
                0.33687159419059753,
                -0.20870360732078552,
                0.7804827094078064
            ],
            "translation" : [
                7.481131553649902,
                5.34366512298584,
                6.5076398849487305
            ]
        },
        {
            "name" : "Lamp.005",
            "rotation" : [
                0.368012398481369,
                0.5020261406898499,
                -0.2325216382741928,
                0.7473087906837463
            ],
            "translation" : [
                17.076244354248047,
                15.903861999511719,
                6.994545936584473
            ]
        },
        {
            "mesh" : 0,
            "name" : "D0607085",
            "rotation" : [
                0.7071068286895752,
                0,
                0,
                0.7071067094802856
            ]
        },
        {
            "name" : "Lamp.004",
            "rotation" : [
                -0.38988158106803894,
                0.40104377269744873,
                0.01006766315549612,
                0.8288877606391907
            ],
            "translation" : [
                -8.923754692077637,
                15.903861999511719,
                -16.005455017089844
            ]
        },
        {
            "name" : "Lamp.003",
            "rotation" : [
                0.5500733256340027,
                -0.38204583525657654,
                -0.3614541292190552,
                0.6486997604370117
            ],
            "translation" : [
                1.0762453079223633,
                6.903861999511719,
                27.994544982910156
            ]
        },
        {
            "mesh" : 1,
            "name" : "D0607085.001",
            "rotation" : [
                0.7071068286895752,
                0,
                0,
                0.7071067094802856
            ]
        },
        {
            "name" : "Lamp.002",
            "rotation" : [
                0.5500733256340027,
                -0.38204583525657654,
                -0.3614541292190552,
                0.6486997604370117
            ],
            "translation" : [
                1.0762453079223633,
                6.903861999511719,
                27.994544982910156
            ]
        },
        {
            "name" : "Lamp.001",
            "rotation" : [
                -0.38988158106803894,
                0.40104377269744873,
                0.01006766315549612,
                0.8288877606391907
            ],
            "translation" : [
                -8.923754692077637,
                15.903861999511719,
                -16.005455017089844
            ]
        },
        {
            "name" : "Lamp",
            "rotation" : [
                0.368012398481369,
                0.5020261406898499,
                -0.2325216382741928,
                0.7473087906837463
            ],
            "translation" : [
                17.076244354248047,
                15.903861999511719,
                6.994545936584473
            ]
        },
        {
            "name" : "Camera.002",
            "rotation" : [
                0.483536034822464,
                0.33687159419059753,
                -0.20870360732078552,
                0.7804827094078064
            ],
            "translation" : [
                7.481131553649902,
                5.34366512298584,
                6.5076398849487305
            ]
        }
    ],
    "materials" : [
        {
            "name" : "Material.007",
            "pbrMetallicRoughness" : {
                "baseColorTexture" : {
                    "index" : 0
                },
                "metallicRoughnessTexture" : {
                    "index" : 1
                }
            }
        },
        {
            "name" : "Material.008",
            "pbrMetallicRoughness" : {
                "baseColorTexture" : {
                    "index" : 2
                },
                "metallicFactor" : 0,
                "roughnessFactor" : 0.5
            }
        },
        {
            "name" : "Material.004a",
            "normalTexture" : {
                "index" : 3
            },
            "pbrMetallicRoughness" : {
                "baseColorFactor" : [
                    0,
                    0,
                    0,
                    1
                ],
                "metallicFactor" : 0,
                "roughnessFactor" : 0.5
            }
        },
        {
            "name" : "Material.009",
            "pbrMetallicRoughness" : {
                "baseColorTexture" : {
                    "index" : 4
                },
                "metallicRoughnessTexture" : {
                    "index" : 5
                }
            }
        },
        {
            "alphaMode" : "BLEND",
            "name" : "Material.006",
            "normalTexture" : {
                "index" : 6
            },
            "pbrMetallicRoughness" : {
                "baseColorFactor" : [
                    0.08200670033693314,
                    0.001860088319517672,
                    0.48386600613594055,
                    0.23181819915771484
                ],
                "metallicFactor" : 0,
                "roughnessFactor" : 0.5
            }
        }
    ],
    "meshes" : [
        {
            "name" : "D0607085.002",
            "primitives" : [
                {
                    "attributes" : {
                        "POSITION" : 0,
                        "NORMAL" : 1,
                        "TEXCOORD_0" : 2
                    },
                    "indices" : 3,
                    "material" : 0
                },
                {
                    "attributes" : {
                        "POSITION" : 4,
                        "NORMAL" : 5,
                        "TEXCOORD_0" : 6
                    },
                    "indices" : 7,
                    "material" : 1
                },
                {
                    "attributes" : {
                        "POSITION" : 8,
                        "NORMAL" : 9,
                        "TEXCOORD_0" : 10
                    },
                    "indices" : 11,
                    "material" : 2
                },
                {
                    "attributes" : {
                        "POSITION" : 12,
                        "NORMAL" : 13,
                        "TEXCOORD_0" : 14
                    },
                    "indices" : 15,
                    "material" : 3
                }
            ]
        },
        {
            "name" : "D0607085.001",
            "primitives" : [
                {
                    "attributes" : {
                        "POSITION" : 16,
                        "NORMAL" : 17,
                        "TEXCOORD_0" : 18
                    },
                    "indices" : 19,
                    "material" : 4
                }
            ]
        }
    ],
    "textures" : [
        {
            "sampler" : 0,
            "source" : 0
        },
        {
            "sampler" : 0,
            "source" : 1
        },
        {
            "sampler" : 0,
            "source" : 2
        },
        {
            "sampler" : 0,
            "source" : 3
        },
        {
            "sampler" : 0,
            "source" : 4
        },
        {
            "sampler" : 0,
            "source" : 5
        },
        {
            "sampler" : 0,
            "source" : 3
        }
    ],
    "images" : [
        {
            "mimeType" : "image/jpeg",
            "name" : "Pifu_color",
            "uri" : "Pifu_color.jpg"
        },
        {
            "mimeType" : "image/png",
            "name" : "Pifu",
            "uri" : "Pifu.png"
        },
        {
            "mimeType" : "image/jpeg",
            "name" : "01_",
            "uri" : "01_.jpg"
        },
        {
            "mimeType" : "image/jpeg",
            "name" : "yf_Normal Map",
            "uri" : "yf_Normal%20Map.jpg"
        },
        {
            "mimeType" : "image/jpeg",
            "name" : "eye_color",
            "uri" : "eye_color.jpg"
        },
        {
            "mimeType" : "image/png",
            "name" : "eye_color-1",
            "uri" : "eye_color-1.png"
        }
    ],
    "accessors" : [
        {
            "bufferView" : 0,
            "componentType" : 5126,
            "count" : 39019,
            "max" : [
                1.8170870542526245,
                0.5050979852676392,
                0.468190997838974
            ],
            "min" : [
                -1.8170870542526245,
                -1.1756030321121216,
                -9.294198989868164
            ],
            "type" : "VEC3"
        },
        {
            "bufferView" : 1,
            "componentType" : 5126,
            "count" : 39019,
            "type" : "VEC3"
        },
        {
            "bufferView" : 2,
            "componentType" : 5126,
            "count" : 39019,
            "type" : "VEC2"
        },
        {
            "bufferView" : 3,
            "componentType" : 5123,
            "count" : 217368,
            "type" : "SCALAR"
        },
        {
            "bufferView" : 4,
            "componentType" : 5126,
            "count" : 6214,
            "max" : [
                0.7846750020980835,
                -0.2700450122356415,
                -8.104063034057617
            ],
            "min" : [
                -0.7846750020980835,
                -1.3460700511932373,
                -9.424328804016113
            ],
            "type" : "VEC3"
        },
        {
            "bufferView" : 5,
            "componentType" : 5126,
            "count" : 6214,
            "type" : "VEC3"
        },
        {
            "bufferView" : 6,
            "componentType" : 5126,
            "count" : 6214,
            "type" : "VEC2"
        },
        {
            "bufferView" : 7,
            "componentType" : 5123,
            "count" : 33804,
            "type" : "SCALAR"
        },
        {
            "bufferView" : 8,
            "componentType" : 5126,
            "count" : 16949,
            "max" : [
                0.6532289981842041,
                0.3943679928779602,
                -6.396202087402344
            ],
            "min" : [
                -0.6529330015182495,
                -1.7755709886550903,
                -9.468915939331055
            ],
            "type" : "VEC3"
        },
        {
            "bufferView" : 9,
            "componentType" : 5126,
            "count" : 16949,
            "type" : "VEC3"
        },
        {
            "bufferView" : 10,
            "componentType" : 5126,
            "count" : 16949,
            "type" : "VEC2"
        },
        {
            "bufferView" : 11,
            "componentType" : 5123,
            "count" : 93300,
            "type" : "SCALAR"
        },
        {
            "bufferView" : 12,
            "componentType" : 5126,
            "count" : 1356,
            "max" : [
                0.3171760141849518,
                -0.12362799793481827,
                -8.446773529052734
            ],
            "min" : [
                -0.3171760141849518,
                -0.40839600563049316,
                -8.721359252929688
            ],
            "type" : "VEC3"
        },
        {
            "bufferView" : 13,
            "componentType" : 5126,
            "count" : 1356,
            "type" : "VEC3"
        },
        {
            "bufferView" : 14,
            "componentType" : 5126,
            "count" : 1356,
            "type" : "VEC2"
        },
        {
            "bufferView" : 15,
            "componentType" : 5123,
            "count" : 7800,
            "type" : "SCALAR"
        },
        {
            "bufferView" : 16,
            "componentType" : 5126,
            "count" : 7849,
            "max" : [
                1.1372950077056885,
                0.1721629947423935,
                -4.92293119430542
            ],
            "min" : [
                -1.1372950077056885,
                -1.019531011581421,
                -7.301249027252197
            ],
            "type" : "VEC3"
        },
        {
            "bufferView" : 17,
            "componentType" : 5126,
            "count" : 7849,
            "type" : "VEC3"
        },
        {
            "bufferView" : 18,
            "componentType" : 5126,
            "count" : 7849,
            "type" : "VEC2"
        },
        {
            "bufferView" : 19,
            "componentType" : 5123,
            "count" : 43680,
            "type" : "SCALAR"
        }
    ],
    "bufferViews" : [
        {
            "buffer" : 0,
            "byteLength" : 468228,
            "byteOffset" : 0,
            "target" : 34962
        },
        {
            "buffer" : 0,
            "byteLength" : 468228,
            "byteOffset" : 468228,
            "target" : 34962
        },
        {
            "buffer" : 0,
            "byteLength" : 312152,
            "byteOffset" : 936456,
            "target" : 34962
        },
        {
            "buffer" : 0,
            "byteLength" : 434736,
            "byteOffset" : 1248608,
            "target" : 34963
        },
        {
            "buffer" : 0,
            "byteLength" : 74568,
            "byteOffset" : 1683344,
            "target" : 34962
        },
        {
            "buffer" : 0,
            "byteLength" : 74568,
            "byteOffset" : 1757912,
            "target" : 34962
        },
        {
            "buffer" : 0,
            "byteLength" : 49712,
            "byteOffset" : 1832480,
            "target" : 34962
        },
        {
            "buffer" : 0,
            "byteLength" : 67608,
            "byteOffset" : 1882192,
            "target" : 34963
        },
        {
            "buffer" : 0,
            "byteLength" : 203388,
            "byteOffset" : 1949800,
            "target" : 34962
        },
        {
            "buffer" : 0,
            "byteLength" : 203388,
            "byteOffset" : 2153188,
            "target" : 34962
        },
        {
            "buffer" : 0,
            "byteLength" : 135592,
            "byteOffset" : 2356576,
            "target" : 34962
        },
        {
            "buffer" : 0,
            "byteLength" : 186600,
            "byteOffset" : 2492168,
            "target" : 34963
        },
        {
            "buffer" : 0,
            "byteLength" : 16272,
            "byteOffset" : 2678768,
            "target" : 34962
        },
        {
            "buffer" : 0,
            "byteLength" : 16272,
            "byteOffset" : 2695040,
            "target" : 34962
        },
        {
            "buffer" : 0,
            "byteLength" : 10848,
            "byteOffset" : 2711312,
            "target" : 34962
        },
        {
            "buffer" : 0,
            "byteLength" : 15600,
            "byteOffset" : 2722160,
            "target" : 34963
        },
        {
            "buffer" : 0,
            "byteLength" : 94188,
            "byteOffset" : 2737760,
            "target" : 34962
        },
        {
            "buffer" : 0,
            "byteLength" : 94188,
            "byteOffset" : 2831948,
            "target" : 34962
        },
        {
            "buffer" : 0,
            "byteLength" : 62792,
            "byteOffset" : 2926136,
            "target" : 34962
        },
        {
            "buffer" : 0,
            "byteLength" : 87360,
            "byteOffset" : 2988928,
            "target" : 34963
        }
    ],
    "samplers" : [
        {
            "magFilter" : 9729,
            "minFilter" : 9987
        }
    ],
    "buffers" : [
        {
            "byteLength" : 3076288,
            "uri" : "bunny3.bin"
        }
    ]
}
