{
    "asset" : {
        "generator" : "Khronos glTF Blender I/O v1.2.20",
        "version" : "2.0"
    },
    "scene" : 0,
    "scenes" : [
        {
            "name" : "Scene",
            "nodes" : [
                0,
                1,
                2,
                3,
                4,
                5
            ]
        }
    ],
    "nodes" : [
        {
            "name" : "D0607085.001",
            "mesh" : 0,
            "rotation" : [
                0.7071068286895752,
                0,
                0,
                0.7071067094802856
            ]
        },
        {
            "name" : "Lamp.002",
            "rotation" : [
                -0.5500733256340027,
                0.38204580545425415,
                0.3614541292190552,
                -0.6486996412277222
            ],
            "translation" : [
                1.0762453079223633,
                6.903861999511719,
                27.994544982910156
            ]
        },
        {
            "name" : "Lamp.001",
            "rotation" : [
                0.38988161087036133,
                -0.4010438024997711,
                -0.010067679919302464,
                -0.8288877010345459
            ],
            "translation" : [
                -8.923754692077637,
                15.903861999511719,
                -16.005455017089844
            ]
        },
        {
            "name" : "D0607085",
            "mesh" : 1,
            "rotation" : [
                0.7071068286895752,
                0,
                0,
                0.7071067094802856
            ]
        },
        {
            "name" : "Lamp",
            "rotation" : [
                0.368012398481369,
                0.5020260810852051,
                -0.23252160847187042,
                0.7473087310791016
            ],
            "translation" : [
                17.076244354248047,
                15.903861999511719,
                6.994545936584473
            ]
        },
        {
            "name" : "Camera",
            "rotation" : [
                0.483536034822464,
                0.33687159419059753,
                -0.20870360732078552,
                0.7804827094078064
            ],
            "translation" : [
                7.481131553649902,
                5.34366512298584,
                6.5076398849487305
            ]
        }
    ],
    "materials" : [
        {
            "name" : "Material.004",
            "pbrMetallicRoughness" : {
                "metallicFactor" : 0,
                "baseColorFactor" : [
                    0.17925122380256653,
                    0.23738066852092743,
                    1,
                    0.36479318141937256
                ],
                "roughnessFactor" : 0.5
            },
            "normalTexture" : {
                "index" : 0,
                "texCoord" : 0
            },
            "alphaMode": "BLEND"
        },
        {
            "name" : "Material.001",
            "pbrMetallicRoughness" : {
                "metallicRoughnessTexture" : {
                    "index" : 2,
                    "texCoord" : 0
                },
                "baseColorTexture" : {
                    "index" : 1,
                    "texCoord" : 0
                },
                "roughnessFactor" : 0.5
            }
        },
        {
            "name" : "Material.002",
            "pbrMetallicRoughness" : {
                "baseColorTexture" : {
                    "index" : 3,
                    "texCoord" : 0
                },
                "metallicFactor" : 0,
                "roughnessFactor" : 0.5
            }
        },
        {
            "name" : "Material.004a",
            "pbrMetallicRoughness" : {
                "metallicFactor" : 0,
                "baseColorFactor" : [
                    0,
                    0,
                    0,
                    1
                ],
                "roughnessFactor" : 0.5
            },
            "normalTexture" : {
                "index" : 4,
                "texCoord" : 0
            }
        },
        {
            "name" : "Material.005",
            "pbrMetallicRoughness" : {
                "metallicRoughnessTexture" : {
                    "index" : 6,
                    "texCoord" : 0
                },
                "baseColorTexture" : {
                    "index" : 5,
                    "texCoord" : 0
                },
                "roughnessFactor" : 0
            }
        }
    ],
    "meshes" : [
        {
            "name" : "D0607085.001",
            "primitives" : [
                {
                    "attributes" : {
                        "POSITION" : 0,
                        "TEXCOORD_0" : 1,
                        "NORMAL" : 2
                    },
                    "material" : 0,
                    "indices" : 3
                }
            ]
        },
        {
            "name" : "D0607085",
            "primitives" : [
                {
                    "attributes" : {
                        "POSITION" : 4,
                        "TEXCOORD_0" : 5,
                        "NORMAL" : 6
                    },
                    "material" : 1,
                    "indices" : 7
                },
                {
                    "attributes" : {
                        "POSITION" : 8,
                        "TEXCOORD_0" : 9,
                        "NORMAL" : 10
                    },
                    "material" : 2,
                    "indices" : 11
                },
                {
                    "attributes" : {
                        "POSITION" : 12,
                        "TEXCOORD_0" : 13,
                        "NORMAL" : 14
                    },
                    "material" : 3,
                    "indices" : 15
                },
                {
                    "attributes" : {
                        "POSITION" : 16,
                        "TEXCOORD_0" : 17,
                        "NORMAL" : 18
                    },
                    "material" : 4,
                    "indices" : 19
                }
            ]
        }
    ],
    "textures" : [
        {
            "source" : 0
        },
        {
            "source" : 1
        },
        {
            "source" : 2
        },
        {
            "source" : 3
        },
        {
            "source" : 0
        },
        {
            "source" : 4
        },
        {
            "source" : 5
        }
    ],
    "images" : [
        {
            "name" : "yf_Normal Map",
            "uri" : "yf_Normal%20Map.jpg",
            "mimeType" : "image/jpeg"
        },
        {
            "name" : "Pifu_color",
            "uri" : "Pifu_color.jpg",
            "mimeType" : "image/jpeg"
        },
        {
            "name" : "Pifu",
            "uri" : "Pifu.png",
            "mimeType" : "image/png"
        },
        {
            "name" : "01.",
            "uri" : "01_.jpg",
            "mimeType" : "image/jpeg"
        },
        {
            "name" : "eye_color",
            "uri" : "eye_color.jpg",
            "mimeType" : "image/jpeg"
        },
        {
            "name" : "eye_color",
            "uri" : "eye_color-1.png",
            "mimeType" : "image/png"
        }
    ],
    "accessors" : [
        {
            "componentType" : 5126,
            "min" : [
                -1.1372950077056885,
                -1.019531011581421,
                -7.301249027252197
            ],
            "type" : "VEC3",
            "count" : 7849,
            "bufferView" : 0,
            "max" : [
                1.1372950077056885,
                0.1721629947423935,
                -4.92293119430542
            ]
        },
        {
            "componentType" : 5126,
            "bufferView" : 1,
            "type" : "VEC2",
            "count" : 7849
        },
        {
            "componentType" : 5126,
            "bufferView" : 2,
            "type" : "VEC3",
            "count" : 7849
        },
        {
            "componentType" : 5123,
            "bufferView" : 3,
            "type" : "SCALAR",
            "count" : 43680
        },
        {
            "componentType" : 5126,
            "min" : [
                -1.8170870542526245,
                -1.1756030321121216,
                -9.294198989868164
            ],
            "type" : "VEC3",
            "count" : 38671,
            "bufferView" : 4,
            "max" : [
                1.8170870542526245,
                0.5050979852676392,
                0.468190997838974
            ]
        },
        {
            "componentType" : 5126,
            "bufferView" : 5,
            "type" : "VEC2",
            "count" : 38671
        },
        {
            "componentType" : 5126,
            "bufferView" : 6,
            "type" : "VEC3",
            "count" : 38671
        },
        {
            "componentType" : 5123,
            "bufferView" : 7,
            "type" : "SCALAR",
            "count" : 217368
        },
        {
            "componentType" : 5126,
            "min" : [
                -0.7846750020980835,
                -1.3460700511932373,
                -9.424328804016113
            ],
            "type" : "VEC3",
            "count" : 6158,
            "bufferView" : 8,
            "max" : [
                0.7846750020980835,
                -0.2700450122356415,
                -8.104063034057617
            ]
        },
        {
            "componentType" : 5126,
            "bufferView" : 9,
            "type" : "VEC2",
            "count" : 6158
        },
        {
            "componentType" : 5126,
            "bufferView" : 10,
            "type" : "VEC3",
            "count" : 6158
        },
        {
            "componentType" : 5123,
            "bufferView" : 11,
            "type" : "SCALAR",
            "count" : 33804
        },
        {
            "componentType" : 5126,
            "min" : [
                -0.6529330015182495,
                -1.7755709886550903,
                -9.468915939331055
            ],
            "type" : "VEC3",
            "count" : 16869,
            "bufferView" : 12,
            "max" : [
                0.6532289981842041,
                0.3943679928779602,
                -6.396202087402344
            ]
        },
        {
            "componentType" : 5126,
            "bufferView" : 13,
            "type" : "VEC2",
            "count" : 16869
        },
        {
            "componentType" : 5126,
            "bufferView" : 14,
            "type" : "VEC3",
            "count" : 16869
        },
        {
            "componentType" : 5123,
            "bufferView" : 15,
            "type" : "SCALAR",
            "count" : 93300
        },
        {
            "componentType" : 5126,
            "min" : [
                -0.3171760141849518,
                -0.40839600563049316,
                -8.721359252929688
            ],
            "type" : "VEC3",
            "count" : 1356,
            "bufferView" : 16,
            "max" : [
                0.3171760141849518,
                -0.12362799793481827,
                -8.446773529052734
            ]
        },
        {
            "componentType" : 5126,
            "bufferView" : 17,
            "type" : "VEC2",
            "count" : 1356
        },
        {
            "componentType" : 5126,
            "bufferView" : 18,
            "type" : "VEC3",
            "count" : 1356
        },
        {
            "componentType" : 5123,
            "bufferView" : 19,
            "type" : "SCALAR",
            "count" : 7800
        }
    ],
    "bufferViews" : [
        {
            "buffer" : 0,
            "byteOffset" : 0,
            "byteLength" : 94188
        },
        {
            "buffer" : 0,
            "byteOffset" : 94188,
            "byteLength" : 62792
        },
        {
            "buffer" : 0,
            "byteOffset" : 156980,
            "byteLength" : 94188
        },
        {
            "buffer" : 0,
            "byteOffset" : 251168,
            "byteLength" : 87360
        },
        {
            "buffer" : 0,
            "byteOffset" : 338528,
            "byteLength" : 464052
        },
        {
            "buffer" : 0,
            "byteOffset" : 802580,
            "byteLength" : 309368
        },
        {
            "buffer" : 0,
            "byteOffset" : 1111948,
            "byteLength" : 464052
        },
        {
            "buffer" : 0,
            "byteOffset" : 1576000,
            "byteLength" : 434736
        },
        {
            "buffer" : 0,
            "byteOffset" : 2010736,
            "byteLength" : 73896
        },
        {
            "buffer" : 0,
            "byteOffset" : 2084632,
            "byteLength" : 49264
        },
        {
            "buffer" : 0,
            "byteOffset" : 2133896,
            "byteLength" : 73896
        },
        {
            "buffer" : 0,
            "byteOffset" : 2207792,
            "byteLength" : 67608
        },
        {
            "buffer" : 0,
            "byteOffset" : 2275400,
            "byteLength" : 202428
        },
        {
            "buffer" : 0,
            "byteOffset" : 2477828,
            "byteLength" : 134952
        },
        {
            "buffer" : 0,
            "byteOffset" : 2612780,
            "byteLength" : 202428
        },
        {
            "buffer" : 0,
            "byteOffset" : 2815208,
            "byteLength" : 186600
        },
        {
            "buffer" : 0,
            "byteOffset" : 3001808,
            "byteLength" : 16272
        },
        {
            "buffer" : 0,
            "byteOffset" : 3018080,
            "byteLength" : 10848
        },
        {
            "buffer" : 0,
            "byteOffset" : 3028928,
            "byteLength" : 16272
        },
        {
            "buffer" : 0,
            "byteOffset" : 3045200,
            "byteLength" : 15600
        }
    ],
    "buffers" : [
        {
            "uri" : "bunny.bin",
            "byteLength" : 3060800
        }
    ]
}
