{
	"asset":{
		"generator":"Khronos glTF Blender I/O v4.0.44",
		"version":"2.0"
	},
	"scene":0,
	"scenes":[
		{
			"name":"Scene",
			"nodes":[
				4
			]
		}
	],
	"nodes":[
		{
			"name":"Hueso",
			"translation":[
				0,
				4,
				0
			]
		},
		{
			"mesh":0,
			"name":"box_body",
			"skin":0
		},
		{
			"mesh":1,
			"name":"box_left",
			"skin":0
		},
		{
			"mesh":2,
			"name":"box_right",
			"skin":0
		},
		{
			"children":[
				1,
				2,
				3,
				0
			],
			"name":"Esqueleto"
		}
	],
	"materials":[
		{
			"doubleSided":true,
			"name":"Material",
			"pbrMetallicRoughness":{
				"baseColorFactor":[
					0.800000011920929,
					0.800000011920929,
					0.800000011920929,
					1
				],
				"metallicFactor":0,
				"roughnessFactor":0.5
			}
		}
	],
	"meshes":[
		{
			"name":"Cube",
			"primitives":[
				{
					"attributes":{
						"POSITION":0,
						"NORMAL":1,
						"TEXCOORD_0":2,
						"JOINTS_0":3,
						"WEIGHTS_0":4
					},
					"indices":5,
					"material":0
				}
			]
		},
		{
			"name":"caja_izq",
			"primitives":[
				{
					"attributes":{
						"POSITION":7,
						"NORMAL":8,
						"TEXCOORD_0":9,
						"JOINTS_0":10,
						"WEIGHTS_0":11
					},
					"indices":12
				}
			]
		},
		{
			"name":"caja_der",
			"primitives":[
				{
					"attributes":{
						"POSITION":13,
						"NORMAL":14,
						"TEXCOORD_0":15,
						"JOINTS_0":16,
						"WEIGHTS_0":17
					},
					"indices":12
				}
			]
		}
	],
	"skins":[
		{
			"inverseBindMatrices":6,
			"joints":[
				0
			],
			"name":"Esqueleto"
		}
	],
	"accessors":[
		{
			"bufferView":0,
			"componentType":5126,
			"count":112,
			"max":[
				1,
				6.300000190734863,
				1
			],
			"min":[
				-1,
				0,
				-1
			],
			"type":"VEC3"
		},
		{
			"bufferView":1,
			"componentType":5126,
			"count":112,
			"type":"VEC3"
		},
		{
			"bufferView":2,
			"componentType":5126,
			"count":112,
			"type":"VEC2"
		},
		{
			"bufferView":3,
			"componentType":5121,
			"count":112,
			"type":"VEC4"
		},
		{
			"bufferView":4,
			"componentType":5126,
			"count":112,
			"type":"VEC4"
		},
		{
			"bufferView":5,
			"componentType":5123,
			"count":168,
			"type":"SCALAR"
		},
		{
			"bufferView":6,
			"componentType":5126,
			"count":1,
			"type":"MAT4"
		},
		{
			"bufferView":7,
			"componentType":5126,
			"count":24,
			"max":[
				0.48000001907348633,
				4.980000019073486,
				-1.0199999809265137
			],
			"min":[
				-0.48000001907348633,
				4.019999980926514,
				-1.9800000190734863
			],
			"type":"VEC3"
		},
		{
			"bufferView":8,
			"componentType":5126,
			"count":24,
			"type":"VEC3"
		},
		{
			"bufferView":9,
			"componentType":5126,
			"count":24,
			"type":"VEC2"
		},
		{
			"bufferView":10,
			"componentType":5121,
			"count":24,
			"type":"VEC4"
		},
		{
			"bufferView":11,
			"componentType":5126,
			"count":24,
			"type":"VEC4"
		},
		{
			"bufferView":12,
			"componentType":5123,
			"count":36,
			"type":"SCALAR"
		},
		{
			"bufferView":13,
			"componentType":5126,
			"count":24,
			"max":[
				0.48000001907348633,
				4.980000019073486,
				1.9800000190734863
			],
			"min":[
				-0.48000001907348633,
				4.019999980926514,
				1.0199999809265137
			],
			"type":"VEC3"
		},
		{
			"bufferView":14,
			"componentType":5126,
			"count":24,
			"type":"VEC3"
		},
		{
			"bufferView":15,
			"componentType":5126,
			"count":24,
			"type":"VEC2"
		},
		{
			"bufferView":16,
			"componentType":5121,
			"count":24,
			"type":"VEC4"
		},
		{
			"bufferView":17,
			"componentType":5126,
			"count":24,
			"type":"VEC4"
		}
	],
	"bufferViews":[
		{
			"buffer":0,
			"byteLength":1344,
			"byteOffset":0,
			"target":34962
		},
		{
			"buffer":0,
			"byteLength":1344,
			"byteOffset":1344,
			"target":34962
		},
		{
			"buffer":0,
			"byteLength":896,
			"byteOffset":2688,
			"target":34962
		},
		{
			"buffer":0,
			"byteLength":448,
			"byteOffset":3584,
			"target":34962
		},
		{
			"buffer":0,
			"byteLength":1792,
			"byteOffset":4032,
			"target":34962
		},
		{
			"buffer":0,
			"byteLength":336,
			"byteOffset":5824,
			"target":34963
		},
		{
			"buffer":0,
			"byteLength":64,
			"byteOffset":6160
		},
		{
			"buffer":0,
			"byteLength":288,
			"byteOffset":6224,
			"target":34962
		},
		{
			"buffer":0,
			"byteLength":288,
			"byteOffset":6512,
			"target":34962
		},
		{
			"buffer":0,
			"byteLength":192,
			"byteOffset":6800,
			"target":34962
		},
		{
			"buffer":0,
			"byteLength":96,
			"byteOffset":6992,
			"target":34962
		},
		{
			"buffer":0,
			"byteLength":384,
			"byteOffset":7088,
			"target":34962
		},
		{
			"buffer":0,
			"byteLength":72,
			"byteOffset":7472,
			"target":34963
		},
		{
			"buffer":0,
			"byteLength":288,
			"byteOffset":7544,
			"target":34962
		},
		{
			"buffer":0,
			"byteLength":288,
			"byteOffset":7832,
			"target":34962
		},
		{
			"buffer":0,
			"byteLength":192,
			"byteOffset":8120,
			"target":34962
		},
		{
			"buffer":0,
			"byteLength":96,
			"byteOffset":8312,
			"target":34962
		},
		{
			"buffer":0,
			"byteLength":384,
			"byteOffset":8408,
			"target":34962
		}
	],
	"buffers":[
		{
			"byteLength":8792,
			"uri":"char2.bin"
		}
	]
}
