{
    "asset" : {
        "generator" : "Khronos glTF Blender I/O v1.2.20",
        "version" : "2.0"
    },
    "scene" : 0,
    "scenes" : [
        {
            "name" : "Scene",
            "nodes" : [
                0,
                1,
                2,
                3,
                4,
                5
            ]
        }
    ],
    "nodes" : [
        {
            "name" : "SUN_Online_-_ver_0_7_5_4_(_Protocol_ver___2_5_3_)-23deaf70.obj",
            "mesh" : 0,
            "rotation" : [
                0.7071068286895752,
                0,
                0,
                0.7071067094802856
            ],
            "translation" : [
                0,
                4,
                0
            ]
        },
        {
            "name" : "SUN_Online_-_ver_0_7_5_4_(_Protocol_ver___2_5_3_)-23db2a48.obj",
            "mesh" : 1,
            "rotation" : [
                0.7071068286895752,
                0,
                0,
                0.7071067094802856
            ],
            "translation" : [
                0,
                4,
                0
            ]
        },
        {
            "name" : "SUN_Online_-_ver_0_7_5_4_(_Protocol_ver___2_5_3_)-23df9290.obj",
            "mesh" : 2,
            "rotation" : [
                0.7071068286895752,
                0,
                0,
                0.7071067094802856
            ],
            "translation" : [
                0,
                4,
                0
            ]
        },
        {
            "name" : "SUN_Online_-_ver_0_7_5_4_(_Protocol_ver___2_5_3_)-23e1a310.obj",
            "mesh" : 3,
            "rotation" : [
                0.7071068286895752,
                0,
                0,
                0.7071067094802856
            ],
            "translation" : [
                0,
                4,
                0
            ]
        },
        {
            "name" : "SUN_Online_-_ver_0_7_5_4_(_Protocol_ver___2_5_3_)-23e0b828.obj",
            "mesh" : 4,
            "rotation" : [
                0.7071068286895752,
                0,
                0,
                0.7071067094802856
            ],
            "translation" : [
                0,
                4,
                0
            ]
        },
        {
            "name" : "SUN_Online_-_ver_0_7_5_4_(_Protocol_ver___2_5_3_)-23dce8f8.obj",
            "mesh" : 5,
            "rotation" : [
                0.7071068286895752,
                0,
                0,
                0.7071067094802856
            ],
            "translation" : [
                0,
                4,
                0
            ]
        }
    ],
    "materials" : [
        {
            "name" : "Material__49",
            "pbrMetallicRoughness" : {
                "baseColorTexture" : {
                    "index" : 1,
                    "texCoord" : 0
                },
                "metallicFactor" : 0,
                "roughnessFactor" : 0.5
            },
            "normalTexture" : {
                "index" : 0,
                "texCoord" : 0
            }
        },
        {
            "name" : "Material__45",
            "pbrMetallicRoughness" : {
                "baseColorTexture" : {
                    "index" : 3,
                    "texCoord" : 0
                },
                "metallicFactor" : 0,
                "roughnessFactor" : 0
            },
            "normalTexture" : {
                "index" : 2,
                "texCoord" : 0
            }
        },
        {
            "name" : "Material__46",
            "pbrMetallicRoughness" : {
                "baseColorTexture" : {
                    "index" : 5,
                    "texCoord" : 0
                },
                "metallicFactor" : 0,
                "roughnessFactor" : 0.5
            },
            "normalTexture" : {
                "index" : 4,
                "texCoord" : 0
            }
        }
    ],
    "meshes" : [
        {
            "name" : "SUN_Online_-_ver_0_7_5_4_(_Protocol_ver___2_5_3_)-23deaf70.obj",
            "primitives" : [
                {
                    "attributes" : {
                        "POSITION" : 0,
                        "TEXCOORD_0" : 1,
                        "NORMAL" : 2
                    },
                    "material" : 0,
                    "indices" : 3
                }
            ]
        },
        {
            "name" : "SUN_Online_-_ver_0_7_5_4_(_Protocol_ver___2_5_3_)-23db2a48.obj",
            "primitives" : [
                {
                    "attributes" : {
                        "POSITION" : 4,
                        "TEXCOORD_0" : 5,
                        "NORMAL" : 6
                    },
                    "material" : 1,
                    "indices" : 7
                }
            ]
        },
        {
            "name" : "SUN_Online_-_ver_0_7_5_4_(_Protocol_ver___2_5_3_)-23df9290.obj",
            "primitives" : [
                {
                    "attributes" : {
                        "POSITION" : 8,
                        "TEXCOORD_0" : 9,
                        "NORMAL" : 10
                    },
                    "material" : 0,
                    "indices" : 11
                }
            ]
        },
        {
            "name" : "SUN_Online_-_ver_0_7_5_4_(_Protocol_ver___2_5_3_)-23e1a310.obj",
            "primitives" : [
                {
                    "attributes" : {
                        "POSITION" : 12,
                        "TEXCOORD_0" : 13,
                        "NORMAL" : 14
                    },
                    "material" : 0,
                    "indices" : 15
                }
            ]
        },
        {
            "name" : "SUN_Online_-_ver_0_7_5_4_(_Protocol_ver___2_5_3_)-23e0b828.obj",
            "primitives" : [
                {
                    "attributes" : {
                        "POSITION" : 16,
                        "TEXCOORD_0" : 17,
                        "NORMAL" : 18
                    },
                    "material" : 0,
                    "indices" : 19
                }
            ]
        },
        {
            "name" : "SUN_Online_-_ver_0_7_5_4_(_Protocol_ver___2_5_3_)-23dce8f8.obj",
            "primitives" : [
                {
                    "attributes" : {
                        "POSITION" : 20,
                        "TEXCOORD_0" : 21,
                        "NORMAL" : 22
                    },
                    "material" : 2,
                    "indices" : 23
                }
            ]
        }
    ],
    "textures" : [
        {
            "source" : 0
        },
        {
            "source" : 1
        },
        {
            "source" : 2
        },
        {
            "source" : 3
        },
        {
            "source" : 4
        },
        {
            "source" : 5
        }
    ],
    "images" : [
        {
            "name" : "7",
            "uri" : "7.png",
            "mimeType" : "image/png"
        },
        {
            "name" : "6",
            "uri" : "6.png",
            "mimeType" : "image/png"
        },
        {
            "name" : "SUN Online - ver 0 7 5 4 ( Protocol ver   2 5 3 )-10cddea0",
            "uri" : "SUN Online - ver 0 7 5 4  Protocol ver   2 5 3 -10cddea0.png",
            "mimeType" : "image/png"
        },
        {
            "name" : "4",
            "uri" : "4.png",
            "mimeType" : "image/png"
        },
        {
            "name" : "5",
            "uri" : "5.png",
            "mimeType" : "image/png"
        },
        {
            "name" : "3",
            "uri" : "3.png",
            "mimeType" : "image/png"
        }
    ],
    "accessors" : [
        {
            "componentType" : 5126,
            "min" : [
                -0.6890100240707397,
                -1.6557070016860962,
                0.724789023399353
            ],
            "type" : "VEC3",
            "count" : 472,
            "bufferView" : 0,
            "max" : [
                1.651764988899231,
                -0.3060559928417206,
                3.980815887451172
            ]
        },
        {
            "componentType" : 5126,
            "bufferView" : 1,
            "type" : "VEC2",
            "count" : 472
        },
        {
            "componentType" : 5126,
            "bufferView" : 2,
            "type" : "VEC3",
            "count" : 472
        },
        {
            "componentType" : 5123,
            "bufferView" : 3,
            "type" : "SCALAR",
            "count" : 1584
        },
        {
            "componentType" : 5126,
            "min" : [
                -0.06493300199508667,
                -1.4372210502624512,
                -4.4109721183776855
            ],
            "type" : "VEC3",
            "count" : 822,
            "bufferView" : 4,
            "max" : [
                0.8450340032577515,
                -0.41471800208091736,
                -3.004394054412842
            ]
        },
        {
            "componentType" : 5126,
            "bufferView" : 5,
            "type" : "VEC2",
            "count" : 822
        },
        {
            "componentType" : 5126,
            "bufferView" : 6,
            "type" : "VEC3",
            "count" : 822
        },
        {
            "componentType" : 5123,
            "bufferView" : 7,
            "type" : "SCALAR",
            "count" : 2844
        },
        {
            "componentType" : 5126,
            "min" : [
                -1.0064760446548462,
                -1.543882966041565,
                -3.5470829010009766
            ],
            "type" : "VEC3",
            "count" : 692,
            "bufferView" : 8,
            "max" : [
                1.8389500379562378,
                -0.22375799715518951,
                -0.9774500131607056
            ]
        },
        {
            "componentType" : 5126,
            "bufferView" : 9,
            "type" : "VEC2",
            "count" : 692
        },
        {
            "componentType" : 5126,
            "bufferView" : 10,
            "type" : "VEC3",
            "count" : 692
        },
        {
            "componentType" : 5123,
            "bufferView" : 11,
            "type" : "SCALAR",
            "count" : 2628
        },
        {
            "componentType" : 5126,
            "min" : [
                -0.7317339777946472,
                -2.476778984069824,
                -2.3780341148376465
            ],
            "type" : "VEC3",
            "count" : 645,
            "bufferView" : 12,
            "max" : [
                1.6293959617614746,
                -0.24429799616336823,
                2.932391881942749
            ]
        },
        {
            "componentType" : 5126,
            "bufferView" : 13,
            "type" : "VEC2",
            "count" : 645
        },
        {
            "componentType" : 5126,
            "bufferView" : 14,
            "type" : "VEC3",
            "count" : 645
        },
        {
            "componentType" : 5123,
            "bufferView" : 15,
            "type" : "SCALAR",
            "count" : 2307
        },
        {
            "componentType" : 5126,
            "min" : [
                -1.2042310237884521,
                -1.3550089597702026,
                -2.016638994216919
            ],
            "type" : "VEC3",
            "count" : 568,
            "bufferView" : 16,
            "max" : [
                2.0522069931030273,
                -0.37640300393104553,
                0.1091890037059784
            ]
        },
        {
            "componentType" : 5126,
            "bufferView" : 17,
            "type" : "VEC2",
            "count" : 568
        },
        {
            "componentType" : 5126,
            "bufferView" : 18,
            "type" : "VEC3",
            "count" : 568
        },
        {
            "componentType" : 5123,
            "bufferView" : 19,
            "type" : "SCALAR",
            "count" : 1620
        },
        {
            "componentType" : 5126,
            "min" : [
                0.007526999805122614,
                -1.233981966972351,
                -4.353238105773926
            ],
            "type" : "VEC3",
            "count" : 1182,
            "bufferView" : 20,
            "max" : [
                0.7588319778442383,
                -0.4106999933719635,
                -3.2325279712677
            ]
        },
        {
            "componentType" : 5126,
            "bufferView" : 21,
            "type" : "VEC2",
            "count" : 1182
        },
        {
            "componentType" : 5126,
            "bufferView" : 22,
            "type" : "VEC3",
            "count" : 1182
        },
        {
            "componentType" : 5123,
            "bufferView" : 23,
            "type" : "SCALAR",
            "count" : 4056
        }
    ],
    "bufferViews" : [
        {
            "buffer" : 0,
            "byteOffset" : 0,
            "byteLength" : 5664
        },
        {
            "buffer" : 0,
            "byteOffset" : 5664,
            "byteLength" : 3776
        },
        {
            "buffer" : 0,
            "byteOffset" : 9440,
            "byteLength" : 5664
        },
        {
            "buffer" : 0,
            "byteOffset" : 15104,
            "byteLength" : 3168
        },
        {
            "buffer" : 0,
            "byteOffset" : 18272,
            "byteLength" : 9864
        },
        {
            "buffer" : 0,
            "byteOffset" : 28136,
            "byteLength" : 6576
        },
        {
            "buffer" : 0,
            "byteOffset" : 34712,
            "byteLength" : 9864
        },
        {
            "buffer" : 0,
            "byteOffset" : 44576,
            "byteLength" : 5688
        },
        {
            "buffer" : 0,
            "byteOffset" : 50264,
            "byteLength" : 8304
        },
        {
            "buffer" : 0,
            "byteOffset" : 58568,
            "byteLength" : 5536
        },
        {
            "buffer" : 0,
            "byteOffset" : 64104,
            "byteLength" : 8304
        },
        {
            "buffer" : 0,
            "byteOffset" : 72408,
            "byteLength" : 5256
        },
        {
            "buffer" : 0,
            "byteOffset" : 77664,
            "byteLength" : 7740
        },
        {
            "buffer" : 0,
            "byteOffset" : 85404,
            "byteLength" : 5160
        },
        {
            "buffer" : 0,
            "byteOffset" : 90564,
            "byteLength" : 7740
        },
        {
            "buffer" : 0,
            "byteOffset" : 98304,
            "byteLength" : 4614
        },
        {
            "buffer" : 0,
            "byteOffset" : 102920,
            "byteLength" : 6816
        },
        {
            "buffer" : 0,
            "byteOffset" : 109736,
            "byteLength" : 4544
        },
        {
            "buffer" : 0,
            "byteOffset" : 114280,
            "byteLength" : 6816
        },
        {
            "buffer" : 0,
            "byteOffset" : 121096,
            "byteLength" : 3240
        },
        {
            "buffer" : 0,
            "byteOffset" : 124336,
            "byteLength" : 14184
        },
        {
            "buffer" : 0,
            "byteOffset" : 138520,
            "byteLength" : 9456
        },
        {
            "buffer" : 0,
            "byteOffset" : 147976,
            "byteLength" : 14184
        },
        {
            "buffer" : 0,
            "byteOffset" : 162160,
            "byteLength" : 8112
        }
    ],
    "buffers" : [
        {
            "uri" : "elementlist.bin",
            "byteLength" : 170272
        }
    ]
}
