{
    "asset" : {
        "generator" : "Khronos glTF Blender I/O v1.2.20",
        "version" : "2.0"
    },
    "scene" : 0,
    "scenes" : [
        {
            "name" : "Scene",
            "nodes" : [
                0
            ]
        }
    ],
    "nodes" : [
        {
            "name" : "Cube",
            "mesh" : 0
        }
    ],
    "materials" : [
        {
            "pbrMetallicRoughness" : {
                "baseColorTexture" : {
                    "texCoord" : 0,
                    "index" : 0
                },
                "metallicFactor" : 0,
                "roughnessFactor" : 0
            },
            "name" : "Material.002"
        }
    ],
    "meshes" : [
        {
            "name" : "Cube.002",
            "primitives" : [
                {
                    "material" : 0,
                    "attributes" : {
                        "POSITION" : 0,
                        "TEXCOORD_0" : 1,
                        "NORMAL" : 2
                    },
                    "indices" : 3
                }
            ]
        }
    ],
    "textures" : [
        {
            "source" : 0
        }
    ],
    "images" : [
        {
            "name" : "i7",
            "mimeType" : "image/jpeg",
            "uri" : "i7.jpg"
        }
    ],
    "accessors" : [
        {
            "componentType" : 5126,
            "count" : 24,
            "type" : "VEC3",
            "bufferView" : 0,
            "min" : [
                -251.9750213623047,
                -95.09158325195312,
                -254.9626007080078
            ],
            "max" : [
                251.97508239746094,
                -76.29122924804688,
                248.9877166748047
            ]
        },
        {
            "componentType" : 5126,
            "bufferView" : 1,
            "count" : 24,
            "type" : "VEC2"
        },
        {
            "componentType" : 5126,
            "bufferView" : 2,
            "count" : 24,
            "type" : "VEC3"
        },
        {
            "componentType" : 5123,
            "bufferView" : 3,
            "count" : 36,
            "type" : "SCALAR"
        }
    ],
    "bufferViews" : [
        {
            "byteLength" : 288,
            "buffer" : 0,
            "byteOffset" : 0
        },
        {
            "byteLength" : 192,
            "buffer" : 0,
            "byteOffset" : 288
        },
        {
            "byteLength" : 288,
            "buffer" : 0,
            "byteOffset" : 480
        },
        {
            "byteLength" : 72,
            "buffer" : 0,
            "byteOffset" : 768
        }
    ],
    "buffers" : [
        {
            "byteLength" : 840,
            "uri" : "ground2.bin"
        }
    ]
}
