{
    "asset" : {
        "version" : "2.0",
        "generator" : "Khronos glTF Blender I/O v1.2.20"
    },
    "scene" : 0,
    "scenes" : [
        {
            "name" : "Scene",
            "nodes" : [
                0,
                1,
                2,
                3,
                4,
                5,
                6,
                7,
                8,
                9,
                10
            ]
        }
    ],
    "nodes" : [
        {
            "name" : "Cube.007",
            "mesh" : 0
        },
        {
            "name" : "Cube.006",
            "mesh" : 1
        },
        {
            "name" : "Cube.005",
            "mesh" : 2
        },
        {
            "name" : "Cube.008",
            "mesh" : 3
        },
        {
            "name" : "door_01",
            "mesh" : 4
        },
        {
            "scale" : [
                1,
                1.7000000476837158,
                1
            ],
            "name" : "Cube.004",
            "mesh" : 5
        },
        {
            "name" : "Cube.003",
            "mesh" : 6
        },
        {
            "scale" : [
                1,
                1.7000000476837158,
                1
            ],
            "name" : "Cube.002",
            "mesh" : 7
        },
        {
            "scale" : [
                1,
                1.7000000476837158,
                1
            ],
            "name" : "Cube.001",
            "mesh" : 8
        },
        {
            "name" : "Cube",
            "mesh" : 9
        },
        {
            "name" : "Camera",
            "rotation" : [
                0.483536034822464,
                0.33687159419059753,
                -0.20870360732078552,
                0.7804827094078064
            ],
            "translation" : [
                7.481131553649902,
                5.34366512298584,
                6.5076398849487305
            ]
        }
    ],
    "materials" : [
        {
            "pbrMetallicRoughness" : {},
            "name" : "Material"
        }
    ],
    "meshes" : [
        {
            "primitives" : [
                {
                    "indices" : 2,
                    "attributes" : {
                        "POSITION" : 0,
                        "NORMAL" : 1
                    }
                }
            ],
            "name" : "Cube.017"
        },
        {
            "primitives" : [
                {
                    "indices" : 5,
                    "attributes" : {
                        "POSITION" : 3,
                        "NORMAL" : 4
                    }
                }
            ],
            "name" : "Cube.016"
        },
        {
            "primitives" : [
                {
                    "material" : 0,
                    "indices" : 8,
                    "attributes" : {
                        "POSITION" : 6,
                        "NORMAL" : 7
                    }
                }
            ],
            "name" : "Cube.015"
        },
        {
            "primitives" : [
                {
                    "material" : 0,
                    "indices" : 11,
                    "attributes" : {
                        "POSITION" : 9,
                        "NORMAL" : 10
                    }
                }
            ],
            "name" : "Cube.013"
        },
        {
            "primitives" : [
                {
                    "material" : 0,
                    "indices" : 14,
                    "attributes" : {
                        "POSITION" : 12,
                        "NORMAL" : 13
                    }
                }
            ],
            "name" : "Cube.005"
        },
        {
            "primitives" : [
                {
                    "material" : 0,
                    "indices" : 14,
                    "attributes" : {
                        "POSITION" : 15,
                        "NORMAL" : 16
                    }
                }
            ],
            "name" : "Cube.004"
        },
        {
            "primitives" : [
                {
                    "material" : 0,
                    "indices" : 14,
                    "attributes" : {
                        "POSITION" : 17,
                        "NORMAL" : 18
                    }
                }
            ],
            "name" : "Cube.003"
        },
        {
            "primitives" : [
                {
                    "material" : 0,
                    "indices" : 21,
                    "attributes" : {
                        "POSITION" : 19,
                        "NORMAL" : 20
                    }
                }
            ],
            "name" : "Cube.002"
        },
        {
            "primitives" : [
                {
                    "material" : 0,
                    "indices" : 21,
                    "attributes" : {
                        "POSITION" : 22,
                        "NORMAL" : 23
                    }
                }
            ],
            "name" : "Cube.001"
        },
        {
            "primitives" : [
                {
                    "material" : 0,
                    "indices" : 8,
                    "attributes" : {
                        "POSITION" : 24,
                        "NORMAL" : 25
                    }
                }
            ],
            "name" : "Cube"
        }
    ],
    "accessors" : [
        {
            "min" : [
                -3.6999998092651367,
                -4.400000095367432,
                -7.09999942779541
            ],
            "count" : 48,
            "bufferView" : 0,
            "componentType" : 5126,
            "max" : [
                22.700000762939453,
                -0.40000009536743164,
                16.900001525878906
            ],
            "type" : "VEC3"
        },
        {
            "count" : 48,
            "componentType" : 5126,
            "type" : "VEC3",
            "bufferView" : 1
        },
        {
            "count" : 72,
            "componentType" : 5123,
            "type" : "SCALAR",
            "bufferView" : 2
        },
        {
            "min" : [
                -4,
                -4.400000095367432,
                -1.599999189376831
            ],
            "count" : 24,
            "bufferView" : 3,
            "componentType" : 5126,
            "max" : [
                1,
                -0.40000009536743164,
                6.40000057220459
            ],
            "type" : "VEC3"
        },
        {
            "count" : 24,
            "componentType" : 5126,
            "type" : "VEC3",
            "bufferView" : 4
        },
        {
            "count" : 36,
            "componentType" : 5123,
            "type" : "SCALAR",
            "bufferView" : 5
        },
        {
            "min" : [
                -33.541412353515625,
                19.08498191833496,
                -45.71321487426758
            ],
            "count" : 24,
            "bufferView" : 6,
            "componentType" : 5126,
            "max" : [
                49.3414192199707,
                19.91381072998047,
                37.169620513916016
            ],
            "type" : "VEC3"
        },
        {
            "count" : 24,
            "componentType" : 5126,
            "type" : "VEC3",
            "bufferView" : 7
        },
        {
            "count" : 36,
            "componentType" : 5123,
            "type" : "SCALAR",
            "bufferView" : 8
        },
        {
            "min" : [
                -32.660003662109375,
                -4.986572265625,
                18.97046661376953
            ],
            "count" : 72,
            "bufferView" : 9,
            "componentType" : 5126,
            "max" : [
                -16.020002365112305,
                4.637948513031006,
                36.130470275878906
            ],
            "type" : "VEC3"
        },
        {
            "count" : 72,
            "componentType" : 5126,
            "type" : "VEC3",
            "bufferView" : 10
        },
        {
            "count" : 108,
            "componentType" : 5123,
            "type" : "SCALAR",
            "bufferView" : 11
        },
        {
            "min" : [
                -32.92810821533203,
                -4.737826824188232,
                -6.6389336585998535
            ],
            "count" : 24,
            "bufferView" : 12,
            "componentType" : 5126,
            "max" : [
                -32.46396255493164,
                3.152620553970337,
                -1.904665470123291
            ],
            "type" : "VEC3"
        },
        {
            "count" : 24,
            "componentType" : 5126,
            "type" : "VEC3",
            "bufferView" : 13
        },
        {
            "count" : 36,
            "componentType" : 5123,
            "type" : "SCALAR",
            "bufferView" : 14
        },
        {
            "min" : [
                48.56558609008789,
                -2.665646553039551,
                -45.713218688964844
            ],
            "count" : 24,
            "bufferView" : 15,
            "componentType" : 5126,
            "max" : [
                49.3944206237793,
                11.424439430236816,
                37.169612884521484
            ],
            "type" : "VEC3"
        },
        {
            "count" : 24,
            "componentType" : 5126,
            "type" : "VEC3",
            "bufferView" : 16
        },
        {
            "min" : [
                -33.594425201416016,
                -4.531599998474121,
                -45.71321105957031
            ],
            "count" : 24,
            "bufferView" : 17,
            "componentType" : 5126,
            "max" : [
                -32.765586853027344,
                19.42154884338379,
                37.16962432861328
            ],
            "type" : "VEC3"
        },
        {
            "count" : 24,
            "componentType" : 5126,
            "type" : "VEC3",
            "bufferView" : 18
        },
        {
            "min" : [
                -33.541412353515625,
                -2.665646553039551,
                36.39378356933594
            ],
            "count" : 24,
            "bufferView" : 19,
            "componentType" : 5126,
            "max" : [
                49.3414192199707,
                11.424439430236816,
                37.22261047363281
            ],
            "type" : "VEC3"
        },
        {
            "count" : 24,
            "componentType" : 5126,
            "type" : "VEC3",
            "bufferView" : 20
        },
        {
            "count" : 36,
            "componentType" : 5123,
            "type" : "SCALAR",
            "bufferView" : 21
        },
        {
            "min" : [
                -33.541412353515625,
                -2.665646553039551,
                -45.76622009277344
            ],
            "count" : 24,
            "bufferView" : 22,
            "componentType" : 5126,
            "max" : [
                49.3414192199707,
                11.424439430236816,
                -44.93739318847656
            ],
            "type" : "VEC3"
        },
        {
            "count" : 24,
            "componentType" : 5126,
            "type" : "VEC3",
            "bufferView" : 23
        },
        {
            "min" : [
                -33.541412353515625,
                -5.3150177001953125,
                -45.71321487426758
            ],
            "count" : 24,
            "bufferView" : 24,
            "componentType" : 5126,
            "max" : [
                49.3414192199707,
                -4.486188888549805,
                37.169620513916016
            ],
            "type" : "VEC3"
        },
        {
            "count" : 24,
            "componentType" : 5126,
            "type" : "VEC3",
            "bufferView" : 25
        }
    ],
    "bufferViews" : [
        {
            "byteOffset" : 0,
            "buffer" : 0,
            "byteLength" : 576
        },
        {
            "byteOffset" : 576,
            "buffer" : 0,
            "byteLength" : 576
        },
        {
            "byteOffset" : 1152,
            "buffer" : 0,
            "byteLength" : 144
        },
        {
            "byteOffset" : 1296,
            "buffer" : 0,
            "byteLength" : 288
        },
        {
            "byteOffset" : 1584,
            "buffer" : 0,
            "byteLength" : 288
        },
        {
            "byteOffset" : 1872,
            "buffer" : 0,
            "byteLength" : 72
        },
        {
            "byteOffset" : 1944,
            "buffer" : 0,
            "byteLength" : 288
        },
        {
            "byteOffset" : 2232,
            "buffer" : 0,
            "byteLength" : 288
        },
        {
            "byteOffset" : 2520,
            "buffer" : 0,
            "byteLength" : 72
        },
        {
            "byteOffset" : 2592,
            "buffer" : 0,
            "byteLength" : 864
        },
        {
            "byteOffset" : 3456,
            "buffer" : 0,
            "byteLength" : 864
        },
        {
            "byteOffset" : 4320,
            "buffer" : 0,
            "byteLength" : 216
        },
        {
            "byteOffset" : 4536,
            "buffer" : 0,
            "byteLength" : 288
        },
        {
            "byteOffset" : 4824,
            "buffer" : 0,
            "byteLength" : 288
        },
        {
            "byteOffset" : 5112,
            "buffer" : 0,
            "byteLength" : 72
        },
        {
            "byteOffset" : 5184,
            "buffer" : 0,
            "byteLength" : 288
        },
        {
            "byteOffset" : 5472,
            "buffer" : 0,
            "byteLength" : 288
        },
        {
            "byteOffset" : 5760,
            "buffer" : 0,
            "byteLength" : 288
        },
        {
            "byteOffset" : 6048,
            "buffer" : 0,
            "byteLength" : 288
        },
        {
            "byteOffset" : 6336,
            "buffer" : 0,
            "byteLength" : 288
        },
        {
            "byteOffset" : 6624,
            "buffer" : 0,
            "byteLength" : 288
        },
        {
            "byteOffset" : 6912,
            "buffer" : 0,
            "byteLength" : 72
        },
        {
            "byteOffset" : 6984,
            "buffer" : 0,
            "byteLength" : 288
        },
        {
            "byteOffset" : 7272,
            "buffer" : 0,
            "byteLength" : 288
        },
        {
            "byteOffset" : 7560,
            "buffer" : 0,
            "byteLength" : 288
        },
        {
            "byteOffset" : 7848,
            "buffer" : 0,
            "byteLength" : 288
        }
    ],
    "buffers" : [
        {
            "uri" : "data:application/octet-stream;base64,",
            "byteLength" : 8136
        }
    ]
}
