{
	"asset":{
		"generator":"Khronos glTF Blender I/O v4.0.44",
		"version":"2.0"
	},
	"extensionsUsed":[
		"KHR_lights_punctual"
	],
	"extensionsRequired":[
		"KHR_lights_punctual"
	],
	"extensions":{
		"KHR_lights_punctual":{
			"lights":[
				{
					"color":[
						1,
						1,
						1
					],
					"intensity":1087.0282613176453,
					"type":"point",
					"name":"Point.000"
				}
			]
		}
	},
	"scene":0,
	"scenes":[
		{
			"name":"Scene",
			"nodes":[
				0,
				1,
				2,
				3,
				4,
				5,
				6,
				7,
				8,
				9,
				10,
				11
			]
		}
	],
	"nodes":[
		{
			"mesh":0,
			"name":"Cube.009"
		},
		{
			"extensions":{
				"KHR_lights_punctual":{
					"light":0
				}
			},
			"name":"Point.001",
			"rotation":[
				-0.7071068286895752,
				0,
				0,
				0.7071068286895752
			],
			"translation":[
				-20,
				4,
				0
			]
		},
		{
			"mesh":1,
			"name":"Cube.007"
		},
		{
			"mesh":2,
			"name":"Cube.006"
		},
		{
			"mesh":3,
			"name":"Cube.005",
			"translation":[
				0,
				-31,
				0
			]
		},
		{
			"mesh":4,
			"name":"Cube.008"
		},
		{
			"mesh":5,
			"name":"door_01"
		},
		{
			"mesh":6,
			"name":"Cube.004",
			"scale":[
				1,
				1.7000000476837158,
				1
			]
		},
		{
			"mesh":7,
			"name":"Cube.003"
		},
		{
			"mesh":8,
			"name":"Cube.002",
			"scale":[
				1,
				1.7000000476837158,
				1
			]
		},
		{
			"mesh":9,
			"name":"Cube.001",
			"scale":[
				1,
				1.7000000476837158,
				1
			]
		},
		{
			"mesh":10,
			"name":"Cube"
		}
	],
	"animations":[
		{
			"channels":[
				{
					"sampler":0,
					"target":{
						"node":1,
						"path":"translation"
					}
				},
				{
					"sampler":1,
					"target":{
						"node":1,
						"path":"rotation"
					}
				}
			],
			"name":"Action",
			"samplers":[
				{
					"input":28,
					"interpolation":"LINEAR",
					"output":29
				},
				{
					"input":30,
					"interpolation":"STEP",
					"output":31
				}
			]
		}
	],
	"materials":[
		{
			"doubleSided":true,
			"name":"Material",
			"pbrMetallicRoughness":{
				"baseColorFactor":[
					0.3595142066478729,
					0.3837621510028839,
					1,
					1
				],
				"metallicFactor":0,
				"roughnessFactor":0.5
			}
		}
	],
	"meshes":[
		{
			"name":"Cube.006",
			"primitives":[
				{
					"attributes":{
						"POSITION":0,
						"NORMAL":1
					},
					"indices":2
				}
			]
		},
		{
			"name":"Cube.017",
			"primitives":[
				{
					"attributes":{
						"POSITION":3,
						"NORMAL":4
					},
					"indices":2
				}
			]
		},
		{
			"name":"Cube.016",
			"primitives":[
				{
					"attributes":{
						"POSITION":5,
						"NORMAL":6
					},
					"indices":7
				}
			]
		},
		{
			"name":"Cube.015",
			"primitives":[
				{
					"attributes":{
						"POSITION":8,
						"NORMAL":9
					},
					"indices":10,
					"material":0
				}
			]
		},
		{
			"name":"Cube.013",
			"primitives":[
				{
					"attributes":{
						"POSITION":11,
						"NORMAL":12
					},
					"indices":13,
					"material":0
				}
			]
		},
		{
			"name":"Cube.005",
			"primitives":[
				{
					"attributes":{
						"POSITION":14,
						"NORMAL":15
					},
					"indices":16,
					"material":0
				}
			]
		},
		{
			"name":"Cube.004",
			"primitives":[
				{
					"attributes":{
						"POSITION":17,
						"NORMAL":18
					},
					"indices":16,
					"material":0
				}
			]
		},
		{
			"name":"Cube.003",
			"primitives":[
				{
					"attributes":{
						"POSITION":19,
						"NORMAL":20
					},
					"indices":16,
					"material":0
				}
			]
		},
		{
			"name":"Cube.002",
			"primitives":[
				{
					"attributes":{
						"POSITION":21,
						"NORMAL":22
					},
					"indices":23,
					"material":0
				}
			]
		},
		{
			"name":"Cube.001",
			"primitives":[
				{
					"attributes":{
						"POSITION":24,
						"NORMAL":25
					},
					"indices":23,
					"material":0
				}
			]
		},
		{
			"name":"Cube",
			"primitives":[
				{
					"attributes":{
						"POSITION":26,
						"NORMAL":27
					},
					"indices":10,
					"material":0
				}
			]
		}
	],
	"accessors":[
		{
			"bufferView":0,
			"componentType":5126,
			"count":24,
			"max":[
				14.69999885559082,
				-0.40000009536743164,
				-2.0999984741210938
			],
			"min":[
				-3.700000286102295,
				-4.400000095367432,
				-7.09999942779541
			],
			"type":"VEC3"
		},
		{
			"bufferView":1,
			"componentType":5126,
			"count":24,
			"type":"VEC3"
		},
		{
			"bufferView":2,
			"componentType":5123,
			"count":36,
			"type":"SCALAR"
		},
		{
			"bufferView":3,
			"componentType":5126,
			"count":24,
			"max":[
				22.700000762939453,
				-0.39999961853027344,
				16.900001525878906
			],
			"min":[
				4.299999237060547,
				-4.399999618530273,
				11.900001525878906
			],
			"type":"VEC3"
		},
		{
			"bufferView":4,
			"componentType":5126,
			"count":24,
			"type":"VEC3"
		},
		{
			"bufferView":5,
			"componentType":5126,
			"count":24,
			"max":[
				1,
				-0.40000009536743164,
				6.40000057220459
			],
			"min":[
				-4,
				-4.400000095367432,
				-1.599999189376831
			],
			"type":"VEC3"
		},
		{
			"bufferView":6,
			"componentType":5126,
			"count":24,
			"type":"VEC3"
		},
		{
			"bufferView":7,
			"componentType":5123,
			"count":36,
			"type":"SCALAR"
		},
		{
			"bufferView":8,
			"componentType":5126,
			"count":24,
			"max":[
				49.3414192199707,
				19.91381072998047,
				37.169620513916016
			],
			"min":[
				-33.541412353515625,
				19.08498191833496,
				-45.71321487426758
			],
			"type":"VEC3"
		},
		{
			"bufferView":9,
			"componentType":5126,
			"count":24,
			"type":"VEC3"
		},
		{
			"bufferView":10,
			"componentType":5123,
			"count":36,
			"type":"SCALAR"
		},
		{
			"bufferView":11,
			"componentType":5126,
			"count":72,
			"max":[
				-16.020002365112305,
				4.637948513031006,
				36.130470275878906
			],
			"min":[
				-32.660003662109375,
				-4.986572265625,
				18.97046661376953
			],
			"type":"VEC3"
		},
		{
			"bufferView":12,
			"componentType":5126,
			"count":72,
			"type":"VEC3"
		},
		{
			"bufferView":13,
			"componentType":5123,
			"count":108,
			"type":"SCALAR"
		},
		{
			"bufferView":14,
			"componentType":5126,
			"count":24,
			"max":[
				-32.46396255493164,
				3.152620553970337,
				-1.904665470123291
			],
			"min":[
				-32.92810821533203,
				-4.737826824188232,
				-6.6389336585998535
			],
			"type":"VEC3"
		},
		{
			"bufferView":15,
			"componentType":5126,
			"count":24,
			"type":"VEC3"
		},
		{
			"bufferView":16,
			"componentType":5123,
			"count":36,
			"type":"SCALAR"
		},
		{
			"bufferView":17,
			"componentType":5126,
			"count":24,
			"max":[
				49.3944206237793,
				11.424439430236816,
				37.169612884521484
			],
			"min":[
				48.56558609008789,
				-2.665646553039551,
				-45.713218688964844
			],
			"type":"VEC3"
		},
		{
			"bufferView":18,
			"componentType":5126,
			"count":24,
			"type":"VEC3"
		},
		{
			"bufferView":19,
			"componentType":5126,
			"count":24,
			"max":[
				-32.765586853027344,
				19.42154884338379,
				37.16962432861328
			],
			"min":[
				-33.594425201416016,
				-4.531599998474121,
				-45.71321105957031
			],
			"type":"VEC3"
		},
		{
			"bufferView":20,
			"componentType":5126,
			"count":24,
			"type":"VEC3"
		},
		{
			"bufferView":21,
			"componentType":5126,
			"count":24,
			"max":[
				49.3414192199707,
				11.424439430236816,
				37.22261047363281
			],
			"min":[
				-33.541412353515625,
				-2.665646553039551,
				36.39378356933594
			],
			"type":"VEC3"
		},
		{
			"bufferView":22,
			"componentType":5126,
			"count":24,
			"type":"VEC3"
		},
		{
			"bufferView":23,
			"componentType":5123,
			"count":36,
			"type":"SCALAR"
		},
		{
			"bufferView":24,
			"componentType":5126,
			"count":24,
			"max":[
				49.3414192199707,
				11.424439430236816,
				-44.93739318847656
			],
			"min":[
				-33.541412353515625,
				-2.665646553039551,
				-45.76622009277344
			],
			"type":"VEC3"
		},
		{
			"bufferView":25,
			"componentType":5126,
			"count":24,
			"type":"VEC3"
		},
		{
			"bufferView":26,
			"componentType":5126,
			"count":24,
			"max":[
				49.3414192199707,
				-4.486188888549805,
				37.169620513916016
			],
			"min":[
				-33.541412353515625,
				-5.3150177001953125,
				-45.71321487426758
			],
			"type":"VEC3"
		},
		{
			"bufferView":27,
			"componentType":5126,
			"count":24,
			"type":"VEC3"
		},
		{
			"bufferView":28,
			"componentType":5126,
			"count":251,
			"max":[
				10.416666666666666
			],
			"min":[
				0
			],
			"type":"SCALAR"
		},
		{
			"bufferView":29,
			"componentType":5126,
			"count":251,
			"type":"VEC3"
		},
		{
			"bufferView":30,
			"componentType":5126,
			"count":2,
			"max":[
				10.416666666666666
			],
			"min":[
				0
			],
			"type":"SCALAR"
		},
		{
			"bufferView":31,
			"componentType":5126,
			"count":2,
			"type":"VEC4"
		}
	],
	"bufferViews":[
		{
			"buffer":0,
			"byteLength":288,
			"byteOffset":0,
			"target":34962
		},
		{
			"buffer":0,
			"byteLength":288,
			"byteOffset":288,
			"target":34962
		},
		{
			"buffer":0,
			"byteLength":72,
			"byteOffset":576,
			"target":34963
		},
		{
			"buffer":0,
			"byteLength":288,
			"byteOffset":648,
			"target":34962
		},
		{
			"buffer":0,
			"byteLength":288,
			"byteOffset":936,
			"target":34962
		},
		{
			"buffer":0,
			"byteLength":288,
			"byteOffset":1224,
			"target":34962
		},
		{
			"buffer":0,
			"byteLength":288,
			"byteOffset":1512,
			"target":34962
		},
		{
			"buffer":0,
			"byteLength":72,
			"byteOffset":1800,
			"target":34963
		},
		{
			"buffer":0,
			"byteLength":288,
			"byteOffset":1872,
			"target":34962
		},
		{
			"buffer":0,
			"byteLength":288,
			"byteOffset":2160,
			"target":34962
		},
		{
			"buffer":0,
			"byteLength":72,
			"byteOffset":2448,
			"target":34963
		},
		{
			"buffer":0,
			"byteLength":864,
			"byteOffset":2520,
			"target":34962
		},
		{
			"buffer":0,
			"byteLength":864,
			"byteOffset":3384,
			"target":34962
		},
		{
			"buffer":0,
			"byteLength":216,
			"byteOffset":4248,
			"target":34963
		},
		{
			"buffer":0,
			"byteLength":288,
			"byteOffset":4464,
			"target":34962
		},
		{
			"buffer":0,
			"byteLength":288,
			"byteOffset":4752,
			"target":34962
		},
		{
			"buffer":0,
			"byteLength":72,
			"byteOffset":5040,
			"target":34963
		},
		{
			"buffer":0,
			"byteLength":288,
			"byteOffset":5112,
			"target":34962
		},
		{
			"buffer":0,
			"byteLength":288,
			"byteOffset":5400,
			"target":34962
		},
		{
			"buffer":0,
			"byteLength":288,
			"byteOffset":5688,
			"target":34962
		},
		{
			"buffer":0,
			"byteLength":288,
			"byteOffset":5976,
			"target":34962
		},
		{
			"buffer":0,
			"byteLength":288,
			"byteOffset":6264,
			"target":34962
		},
		{
			"buffer":0,
			"byteLength":288,
			"byteOffset":6552,
			"target":34962
		},
		{
			"buffer":0,
			"byteLength":72,
			"byteOffset":6840,
			"target":34963
		},
		{
			"buffer":0,
			"byteLength":288,
			"byteOffset":6912,
			"target":34962
		},
		{
			"buffer":0,
			"byteLength":288,
			"byteOffset":7200,
			"target":34962
		},
		{
			"buffer":0,
			"byteLength":288,
			"byteOffset":7488,
			"target":34962
		},
		{
			"buffer":0,
			"byteLength":288,
			"byteOffset":7776,
			"target":34962
		},
		{
			"buffer":0,
			"byteLength":1004,
			"byteOffset":8064
		},
		{
			"buffer":0,
			"byteLength":3012,
			"byteOffset":9068
		},
		{
			"buffer":0,
			"byteLength":8,
			"byteOffset":12080
		},
		{
			"buffer":0,
			"byteLength":32,
			"byteOffset":12088
		}
	],
	"buffers":[
		{
			"byteLength":12120,
			"uri":"scene_a.bin"
		}
	]
}
