{
    "asset" : {
        "version" : "2.0",
        "generator" : "Khronos glTF Blender I/O v1.2.20"
    },
    "scene" : 0,
    "scenes" : [
        {
            "nodes" : [
                0,
                1,
                2,
                3,
                4,
                5,
                6
            ],
            "name" : "Scene"
        }
    ],
    "nodes" : [
        {
            "mesh" : 0,
            "scale" : [
                0.19999998807907104,
                4,
                2
            ],
            "name" : "render.gate"
        },
        {
            "mesh" : 1,
            "scale" : [
                0.19999998807907104,
                4,
                2
            ],
            "name" : "render.door"
        },
        {
            "mesh" : 2,
            "translation" : [
                0,
                0,
                -3.260815382003784
            ],
            "scale" : [
                0.18399997055530548,
                1.5999999046325684,
                0.7999999523162842
            ],
            "name" : "render.switch"
        },
        {
            "mesh" : 3,
            "name" : "hit.switch",
            "translation" : [
                0.09999990463256836,
                -0.030000001192092896,
                -3.2300000190734863
            ]
        },
        {
            "mesh" : 4,
            "name" : "collide.door"
        },
        {
            "name" : "Lamp",
            "rotation" : [
                0.16907575726509094,
                0.7558803558349609,
                -0.27217137813568115,
                0.570947527885437
            ],
            "translation" : [
                4.076245307922363,
                5.903861999511719,
                -1.0054539442062378
            ]
        },
        {
            "name" : "Camera",
            "rotation" : [
                0.483536034822464,
                0.33687159419059753,
                -0.20870360732078552,
                0.7804827094078064
            ],
            "translation" : [
                7.481131553649902,
                5.34366512298584,
                6.5076398849487305
            ]
        }
    ],
    "materials" : [
        {
            "pbrMetallicRoughness" : {},
            "name" : "Material.002"
        },
        {
            "pbrMetallicRoughness" : {},
            "name" : "Material"
        },
        {
            "pbrMetallicRoughness" : {},
            "name" : "hitbox"
        },
        {
            "pbrMetallicRoughness" : {},
            "name" : "collidebox"
        }
    ],
    "meshes" : [
        {
            "name" : "mesh.render.gate",
            "primitives" : [
                {
                    "material" : 0,
                    "attributes" : {
                        "POSITION" : 0,
                        "NORMAL" : 1
                    },
                    "indices" : 2
                }
            ]
        },
        {
            "name" : "mesh.render.door",
            "primitives" : [
                {
                    "material" : 0,
                    "attributes" : {
                        "POSITION" : 3,
                        "NORMAL" : 4
                    },
                    "indices" : 5
                }
            ]
        },
        {
            "name" : "mesh.render.switch",
            "primitives" : [
                {
                    "material" : 1,
                    "attributes" : {
                        "POSITION" : 6,
                        "NORMAL" : 7
                    },
                    "indices" : 8
                }
            ]
        },
        {
            "name" : "mesh.hit.switch",
            "primitives" : [
                {
                    "material" : 2,
                    "attributes" : {
                        "POSITION" : 9,
                        "NORMAL" : 10
                    },
                    "indices" : 11
                }
            ]
        },
        {
            "name" : "mesh.render.door.001",
            "primitives" : [
                {
                    "material" : 3,
                    "attributes" : {
                        "POSITION" : 12,
                        "NORMAL" : 13
                    },
                    "indices" : 2
                }
            ]
        }
    ],
    "accessors" : [
        {
            "componentType" : 5126,
            "count" : 24,
            "max" : [
                1.0000004768371582,
                1,
                1.0000005960464478
            ],
            "type" : "VEC3",
            "min" : [
                -1.0000003576278687,
                -1,
                -1.0000003576278687
            ],
            "bufferView" : 0
        },
        {
            "type" : "VEC3",
            "componentType" : 5126,
            "count" : 24,
            "bufferView" : 1
        },
        {
            "type" : "SCALAR",
            "componentType" : 5123,
            "count" : 36,
            "bufferView" : 2
        },
        {
            "componentType" : 5126,
            "count" : 812,
            "max" : [
                2.500000476837158,
                1.1736273765563965,
                1.34568190574646
            ],
            "type" : "VEC3",
            "min" : [
                -2.500000476837158,
                -1,
                -1.34568190574646
            ],
            "bufferView" : 3
        },
        {
            "type" : "VEC3",
            "componentType" : 5126,
            "count" : 812,
            "bufferView" : 4
        },
        {
            "type" : "SCALAR",
            "componentType" : 5123,
            "count" : 1200,
            "bufferView" : 5
        },
        {
            "componentType" : 5126,
            "count" : 1136,
            "max" : [
                2.625840187072754,
                1,
                1.0000005960464478
            ],
            "type" : "VEC3",
            "min" : [
                -1.0000003576278687,
                -1,
                -1.0000003576278687
            ],
            "bufferView" : 6
        },
        {
            "type" : "VEC3",
            "componentType" : 5126,
            "count" : 1136,
            "bufferView" : 7
        },
        {
            "type" : "SCALAR",
            "componentType" : 5123,
            "count" : 1854,
            "bufferView" : 8
        },
        {
            "componentType" : 5126,
            "count" : 24,
            "max" : [
                0.5,
                1.404000163078308,
                0.680400013923645
            ],
            "type" : "VEC3",
            "min" : [
                -0.5,
                -1.404000163078308,
                -0.680400013923645
            ],
            "bufferView" : 9
        },
        {
            "type" : "VEC3",
            "componentType" : 5126,
            "count" : 24,
            "bufferView" : 10
        },
        {
            "type" : "SCALAR",
            "componentType" : 5123,
            "count" : 36,
            "bufferView" : 11
        },
        {
            "componentType" : 5126,
            "count" : 24,
            "max" : [
                0.28000009059906006,
                3.919999837875366,
                2.800001621246338
            ],
            "type" : "VEC3",
            "min" : [
                -0.28000006079673767,
                -3.919999837875366,
                -2.8000009059906006
            ],
            "bufferView" : 12
        },
        {
            "type" : "VEC3",
            "componentType" : 5126,
            "count" : 24,
            "bufferView" : 13
        }
    ],
    "bufferViews" : [
        {
            "buffer" : 0,
            "byteLength" : 288,
            "byteOffset" : 0
        },
        {
            "buffer" : 0,
            "byteLength" : 288,
            "byteOffset" : 288
        },
        {
            "buffer" : 0,
            "byteLength" : 72,
            "byteOffset" : 576
        },
        {
            "buffer" : 0,
            "byteLength" : 9744,
            "byteOffset" : 648
        },
        {
            "buffer" : 0,
            "byteLength" : 9744,
            "byteOffset" : 10392
        },
        {
            "buffer" : 0,
            "byteLength" : 2400,
            "byteOffset" : 20136
        },
        {
            "buffer" : 0,
            "byteLength" : 13632,
            "byteOffset" : 22536
        },
        {
            "buffer" : 0,
            "byteLength" : 13632,
            "byteOffset" : 36168
        },
        {
            "buffer" : 0,
            "byteLength" : 3708,
            "byteOffset" : 49800
        },
        {
            "buffer" : 0,
            "byteLength" : 288,
            "byteOffset" : 53508
        },
        {
            "buffer" : 0,
            "byteLength" : 288,
            "byteOffset" : 53796
        },
        {
            "buffer" : 0,
            "byteLength" : 72,
            "byteOffset" : 54084
        },
        {
            "buffer" : 0,
            "byteLength" : 288,
            "byteOffset" : 54156
        },
        {
            "buffer" : 0,
            "byteLength" : 288,
            "byteOffset" : 54444
        }
    ],
    "buffers" : [
        {
            "uri" : "data:application/octet-stream;base64,",
            "byteLength" : 54732
        }
    ]
}
